<svg id="Layer_1" data-name="Layer 1" xmlns="http://www.w3.org/2000/svg" viewBox="0 0 222 222"><defs><style>.cls-1{opacity:0.2;}.cls-2{fill:#010101;}.cls-3{fill:#fcca37;}.cls-4{fill:#fff;}.cls-5{fill:#f79421;}</style></defs><g class="cls-1"><rect class="cls-2" x="25.25" y="25.25" width="196.75" height="196.74"/></g><rect class="cls-3" x="6.12" y="6.12" width="196.75" height="196.74"/><polygon class="cls-4" points="70.97 88.33 38.71 88.33 38.71 48.7 54.04 30.95 151.09 30.95 169.66 53.23 169.66 103.78 151.73 121.71 118.94 122.2 118.94 148.19 86.23 148.19 86.23 110.16 98.13 99.03 133.75 99.03 133.75 54.98 70.97 54.98 70.97 88.33"/><rect class="cls-4" x="86.23" y="169.71" width="31.8" height="13.52"/><path class="cls-2" d="M235.58,222.78H26.6V13.8h209ZM31.34,218h199.5V18.54H31.34Z" transform="translate(-26.6 -13.8)"/><circle class="cls-2" cx="49.22" cy="36.75" r="7.31" transform="translate(-38.17 31.77) rotate(-45)"/><circle class="cls-2" cx="49.22" cy="201.7" r="7.31" transform="translate(-184.99 189.46) rotate(-76.72)"/><circle class="cls-2" cx="214.17" cy="36.75" r="7.31" transform="translate(10.14 148.4) rotate(-45)"/><circle class="cls-2" cx="214.17" cy="201.7" r="7.31" transform="translate(-57.94 349.99) rotate(-76.72)"/><path class="cls-5" d="M151.66,168.11H106.71V121.3l15.6-14.59h31.92V74.9H103.68v33.35H59.19v-48L77.84,38.63H180.56l21.82,26.19v55.3L180.9,141.6l-29.24.43Zm-40.21-4.74h35.47v-26l32-.48,18.73-18.73V66.53l-19.3-23.16H80L63.93,62v41.52h35V70.16h60v41.29H124.18l-12.73,11.91Z" transform="translate(-26.6 -13.8)"/><path class="cls-5" d="M150.75,203.15h-44V177.4h44Zm-39.3-4.74H146V182.14H111.45Z" transform="translate(-26.6 -13.8)"/></svg>