<svg id="Layer_1" data-name="Layer 1" xmlns="http://www.w3.org/2000/svg" viewBox="0 0 770.12 147"><defs><style>.cls-1{fill:#fff;}.cls-2{fill:#010101;}.cls-3{fill:#2466b1;}.cls-4{fill:#fbd513;}.cls-5{fill:#db1f26;}.cls-6{fill:#459c45;}</style></defs><path class="cls-1" d="M168.73,63.44l-1.79-24.68,28.53-23.27,23.55.75-.56,19.33L200,36.7l-10,11.82,10.7,12.85,9.76-2.06-.75-2.72-9,1.31L198.94,43l24.3-4.5,9,31.52-11.07,9.39L185.8,81.17Z" transform="translate(-5.53 -5.7)"/><path class="cls-2" d="M182.08,90.57,159.79,67.42l-2.37-32.77,34.9-28.47,36.17,1.16-.61,20.92,1.91-.36,12.94,45.29-18,15.23Zm-4.41-31.12,11.86,12.32,7.46-.38-2.71-3.26-1.73.25-.3-2.69L177.91,48.46l10.93-12.87V35.5l.1,0,6.57-7.73,14-.86.05-1.74-10.93-.35L176.47,42.87Zm44,6.89-23.65,5,19.62-1,4.17-3.53Z" transform="translate(-5.53 -5.7)"/><path class="cls-1" d="M233.18,76l5.73-12.1-3.29-.19,4.6-20.46L248,44.48l13.7-29h14.35l31,60.14L283.1,81.26,278.22,65.6l-16.51-.76-4.6,15.77Zm39.6-27.77-3.29-10.32-2.72,9.38Z" transform="translate(-5.53 -5.7)"/><path class="cls-2" d="M276.86,92.19,271.35,74.5l-2.83-.13L263.6,91.23l-43.81-8.42,5-10.49-.49,0,8.87-39.45,9.5,1.49,13.24-28h25.81L320.6,81.9ZM286,59.62l3.34,10.72,4.11-1-11.23-21.8,3.84,12.06Zm-39.42,9.59,4,.78,4.28-14.67,5.07.23-5-.77,2.7-9.3-4.33,9.16-6.08-1L247,55.15l6.09.34Z" transform="translate(-5.53 -5.7)"/><path class="cls-1" d="M309,17.27l18.11-1.78,15.76,30L344,17.84l18.11-1.69,5.53,64.27-26.27.75-9.19-20.45,2.16,19L308,80.42Z" transform="translate(-5.53 -5.7)"/><path class="cls-2" d="M318.17,7.12l14.2-1.4,2.69,5.13.06-1.43,35.35-3.3,7.17,83.22-42.15,1.21L334.77,89l-36.17.9,1.32-80.94,16.93-1.67m36,19L351,71.69l6.62-.19-3.91-45.33Zm-34.8-.62L317.32,71l6.73-.17-5.13-45.26Z" transform="translate(-5.53 -5.7)"/><path class="cls-1" d="M368.57,76l5.72-12.1L371,63.72l4.6-20.46,7.78,1.22,13.7-29h14.36l31,60.14-23.92,5.63L413.61,65.6l-16.52-.76L392.5,80.61Zm39.59-27.77-3.28-10.32-2.72,9.38Z" transform="translate(-5.53 -5.7)"/><path class="cls-2" d="M412.25,92.19,406.74,74.5l-2.84-.13L399,91.23l-43.82-8.42,5-10.49-.48,0,8.87-39.45L378,34.33l13.25-28h25.8L456,81.9Zm9.14-32.57,3.33,10.72,4.12-1-11.23-21.8,3.84,12.06ZM382,69.21l4,.78,4.27-14.67,5.08.23-4.95-.77,2.69-9.3-4.33,9.16-6.07-1-.33,1.46,6.08.34Z" transform="translate(-5.53 -5.7)"/><path class="cls-1" d="M449,58.37l26.64,3.47-.28-3.47L450,54.15l-3.85-19.71L466.9,15.49l29.08.38L493.54,36.6,479.85,38l-1.41-6.66-8.73,8.35,20,1.78,14.73,28.06-7,11.63h-54Z" transform="translate(-5.53 -5.7)"/><path class="cls-2" d="M502.58,90.37h-71l9-36.43-4.45-22.8,27.24-24.9,42.94.56-4.47,38,13.14,25ZM485.68,72h6.52l1.66-2.75-10-19-3.34-.29,3.4.56ZM455.1,72h27l-26.14-3.41Zm1.09-34.22.35,1.82L472,24.76l-1.59,0Z" transform="translate(-5.53 -5.7)"/><path class="cls-1" d="M512.12,74.6l3.66-37.81-14.54,1.88-3.38-22.33L552,15.12V32l-14.64,1.88,3.85,41.75-19.52,5.73Z" transform="translate(-5.53 -5.7)"/><path class="cls-2" d="M520,91.44,502.44,79l3.07-31.64-12,1.55L487.19,7.37l74-1.67V40.1l-13.86,1.78,3.73,40.45Zm1.78-21.27,1.57,1.1,8-2.34-4-43.05,9.5-1.22-28.36.64.47,3.09,17.06-2.21Z" transform="translate(-5.53 -5.7)"/><path class="cls-1" d="M555.09,22.72l13.23-7.32L602.94,21,602.66,34,572.73,36.6,573.86,42l18.57-2.72,2.44,15-17.54,4.22,1.12,5.63,28.71-4.59L610,81.17l-57.05-.28Z" transform="translate(-5.53 -5.7)"/><path class="cls-2" d="M620.46,90.43l-77.08-.38,2.71-72.87L566.65,5.8l45.67,7.43-.64,29.19-9.27.82,1.22,7.5,11.44-1.83ZM588.18,71.86l11.32,0-.24-1.83Zm-25.7-.13,8.12,0L566.71,52.3h-.08l-2.91-13.84ZM570,25l-5.61,3.11,16-1.41Z" transform="translate(-5.53 -5.7)"/><path class="cls-1" d="M14.91,132l1.88-35.16L30.48,95.4,33,121.62l4.26.58L34.57,97.37l14.92-2L55,130l-6.23,9.18-26.88,1.39Z" transform="translate(-5.53 -5.7)"/><path class="cls-2" d="M17.67,150,5.53,135,8,88.43l30.73-3.12L39,87.5l18.21-2.4,7.47,47-10.84,16ZM25,129.84l1,1.28,6.12-.32Zm-.75-.93.21.26-.15-1.51Z" transform="translate(-5.53 -5.7)"/><path class="cls-1" d="M72.35,126.46l1.48,13.11-18,.49.73-43.35,12.38-1.23,12.54,18.85L82.18,97l13.2-1.56,3.85,44.58-18.85.49Z" transform="translate(-5.53 -5.7)"/><polyline class="cls-2" points="54.98 81.36 67.98 80.07 69.84 82.87 98.2 79.53 103.72 143.31 69.59 144.2 68.94 143.06 40.91 143.82 41.95 82.66 53.15 81.55"/><path class="cls-1" d="M135.94,95.89l13.69-.24L161,95.48l11.22,16.39-12.62,12.7-8.93,1.89.49,13.36-20,.73ZM150.2,112l4.83-2-.81-1.56-4.18-.25Z" transform="translate(-5.53 -5.7)"/><path class="cls-2" d="M120.91,150.14l6.74-63.31,21.81-.39,16.36-.23L184.14,113,164.21,133l-4,.85.55,14.81Zm20.69-20.45-.14,1.27h.19Z" transform="translate(-5.53 -5.7)"/><path class="cls-1" d="M191.17,129.9l.33,9.92-19.26.73L177,95.73l23.35-.25,11.31,15.16-8.6,11.88,11.63,10.66-15.49,7.37Zm-.57-16.47,4.59-2.46-.66-1.89h-4.09Z" transform="translate(-5.53 -5.7)"/><polygon class="cls-2" points="190.85 146.39 188.47 143.23 156.44 144.46 163.18 80.91 199.41 80.53 217.56 104.86 209.8 115.57 225.46 129.91 190.85 146.39"/><path class="cls-1" d="M215.51,140.31,217,100.56l9.83-5.08,23.68,3.93V109.9l-20.32,1.81.57,2.7,12.62-1.72L245,122.93l-11.88,2.87.33,1.48,20-3.2,1.89,16.47h-19.1Z" transform="translate(-5.53 -5.7)"/><polygon class="cls-2" points="260.13 144.06 230.61 144.06 200.44 143.7 202.46 89.15 219.79 80.2 254.18 85.91 254.18 108.06 255.98 107.77 260.13 144.06"/><path class="cls-1" d="M276.81,122.28l-.74,18.27-19.91-3.77,9.91-41.3H278l4.58,13.69,5-13.69,11.23.25,12.7,39.17-17.29,5.65-2.95-20.16-6.88,13.53Z" transform="translate(-5.53 -5.7)"/><polygon class="cls-2" points="281.13 147 280.79 144.64 279.78 146.62 279.3 145.88 239.43 138.33 253.29 80.58 275.58 80.58 275.63 80.43 299.98 80.97 317.53 135.09 281.13 147"/><path class="cls-1" d="M312.29,136.05l3.77-39.42,13.19-1.15L333,136.7l-14.17,4Z" transform="translate(-5.53 -5.7)"/><path class="cls-2" d="M317.1,150.78l-14.48-10.32,5-52.34,30-2.6,5.3,58Zm5.55-26.41-.56,5.86,1.07-.3Z" transform="translate(-5.53 -5.7)"/><path class="cls-1" d="M333.84,115l13.85-17.53,19.18-2,14.34,15.65-10.41,26.8-25.24,2.62Zm23.69,6.15,5.73-5.16-6.64-6-4.5,6Z" transform="translate(-5.53 -5.7)"/><path class="cls-2" d="M340,150.39,323.13,113.7l19.75-25,27.65-2.84,21.33,23.28L377.35,146.5Zm8.85-24.86,2.38,5.19,2.76-.29Zm16.59.9-3.52,3.17,2.39-.24Z" transform="translate(-5.53 -5.7)"/><path class="cls-1" d="M417,125l18.19,2.38-.16-2.38-17.38-2.87-2.54-13.52,14.18-13.11,20.49.41-1.72,14.18-10.74,1-1-4.59-5.16,5.08,14.5,1.23,10,19.83-4.75,8H413.17Z" transform="translate(-5.53 -5.7)"/><path class="cls-2" d="M456.17,149.76H401.41L408.28,122l-3.13-16.68L425.79,86.2l34.37.69-3.34,27.5L466.2,133Zm-11.46-18.41h.05l-.05-.11Z" transform="translate(-5.53 -5.7)"/><path class="cls-1" d="M451.6,115l13.85-17.53,19.18-2L499,111.13l-10.41,26.8-25.24,2.62Zm23.68,6.15L481,116l-6.64-6-4.51,6Z" transform="translate(-5.53 -5.7)"/><path class="cls-2" d="M457.7,150.39,440.89,113.7l19.75-25,27.65-2.84,21.33,23.28L495.1,146.5Zm8.86-24.86,2.37,5.19,2.76-.29Zm16.59.9-3.52,3.17,2.38-.24Z" transform="translate(-5.53 -5.7)"/><path class="cls-1" d="M518.71,129.9l.33,9.92-19.26.73,4.76-44.82,23.35-.25,11.31,15.16-8.6,11.88,11.63,10.66-15.48,7.37Zm-.57-16.47,4.59-2.46-.66-1.89H518Z" transform="translate(-5.53 -5.7)"/><polygon class="cls-2" points="518.39 146.39 516.01 143.23 483.99 144.46 490.72 80.91 526.95 80.53 545.1 104.86 537.34 115.57 553 129.91 518.39 146.39"/><path class="cls-1" d="M547.81,95.89l13.68-.24,11.39-.17,11.23,16.39-12.62,12.7-8.93,1.89.49,13.36-20,.73ZM562.06,112l4.84-2-.82-1.56-4.18-.25Z" transform="translate(-5.53 -5.7)"/><path class="cls-2" d="M532.78,150.14l6.73-63.31,21.82-.39,16.36-.23L596,113,576.08,133l-4,.85.54,14.81Zm20.68-20.45-.13,1.27h.18Z" transform="translate(-5.53 -5.7)"/><path class="cls-1" d="M603,129.9l.33,9.92-19.26.73,4.75-44.82,23.36-.25,11.31,15.16-8.61,11.88,11.64,10.66-15.49,7.37Zm-.57-16.47,4.58-2.46-.65-1.89h-4.1Z" transform="translate(-5.53 -5.7)"/><polygon class="cls-2" points="602.72 146.39 600.33 143.23 568.31 144.46 575.05 80.91 611.27 80.53 629.42 104.86 621.66 115.57 637.33 129.91 602.72 146.39"/><path class="cls-1" d="M627.38,140.31l1.47-39.75,9.84-5.08,23.68,3.93V109.9l-20.32,1.81.57,2.7,12.62-1.72,1.64,10.24L645,125.8l.32,1.48,20-3.2,1.88,16.47H648.11Z" transform="translate(-5.53 -5.7)"/><polygon class="cls-2" points="672 144.06 642.48 144.06 612.3 143.7 614.33 89.15 631.65 80.2 666.05 85.91 666.05 108.06 667.84 107.77 672 144.06"/><path class="cls-1" d="M671.87,125l18.2,2.38L689.9,125l-17.37-2.87L670,108.59l14.18-13.11,20.48.41-1.72,14.18-10.73,1-1-4.59-5.16,5.08,14.51,1.23,10,19.83-4.75,8H668Z" transform="translate(-5.53 -5.7)"/><path class="cls-2" d="M711,149.76H656.26L663.14,122,660,105.29,680.64,86.2l34.38.69-3.34,27.5L721.05,133Zm-11.45-18.41h0l-.05-.11Z" transform="translate(-5.53 -5.7)"/><path class="cls-1" d="M741.45,129.82l-9.84-.41-3,11.14-17.21-3.11,4.1-8.77-2.46-.08,3.2-14,5.41.81,9.26-19.91h9.91L762,136.78l-17.21,3.85Zm-3.69-12-1.64-5.24-1.31,4.83Z" transform="translate(-5.53 -5.7)"/><path class="cls-2" d="M737.54,86.28h8.87l29.23,56.89-37.11,8.3-1.8-5.81-1.48,5.45L698,144.37l3.9-8.35,7.26-31.83,7,1.07,8.83-19h8.72M750.87,129h0Z" transform="translate(-5.53 -5.7)"/><path class="cls-3" d="M165.76,60.47,164,35.79,192.5,12.52l23.55.75-.56,19.33L197,33.73,187,45.55l10.7,12.85,9.76-2.06-.75-2.72-9,1.31L196,40l24.3-4.5,9,31.53-11.07,9.38L182.83,78.2Z" transform="translate(-5.53 -5.7)"/><path class="cls-4" d="M230.21,73l5.73-12.1-3.29-.19,4.6-20.45L245,41.51l13.7-29h14.35l31,60.15L280.13,78.3l-4.88-15.67-16.51-.75-4.6,15.76Zm39.6-27.77L266.52,35l-2.72,9.38Z" transform="translate(-5.53 -5.7)"/><path class="cls-5" d="M306,14.3l18.11-1.78,15.76,30L341,14.87l18.11-1.69,5.54,64.27-26.28.75L329.2,57.75l2.16,19L305,77.45Z" transform="translate(-5.53 -5.7)"/><path class="cls-6" d="M365.6,73l5.72-12.1L368,60.75l4.6-20.45,7.79,1.21,13.69-29h14.36l31,60.15L415.52,78.3l-4.88-15.67-16.52-.75-4.59,15.76Zm39.6-27.77L401.91,35l-2.72,9.38Z" transform="translate(-5.53 -5.7)"/><path class="cls-3" d="M446,55.4l26.64,3.47-.28-3.47L447,51.18l-3.85-19.7,20.74-19L493,12.9l-2.43,20.73L476.88,35l-1.41-6.66-8.73,8.35,20,1.78,14.73,28.06-7,11.63h-54Z" transform="translate(-5.53 -5.7)"/><path class="cls-4" d="M509.15,71.63l3.66-37.81L498.27,35.7l-3.38-22.33L549,12.15V29l-14.64,1.87,3.85,41.76-19.52,5.72Z" transform="translate(-5.53 -5.7)"/><path class="cls-5" d="M552.12,19.75l13.23-7.32L600,18.06l-.28,13-29.93,2.62L570.89,39l18.57-2.72,2.44,15L574.36,55.5l1.12,5.62,28.72-4.59L607,78.2l-57-.28Z" transform="translate(-5.53 -5.7)"/><path class="cls-6" d="M11.94,129l1.88-35.16,13.69-1.39,2.54,26.22,4.26.58L31.6,94.4l14.92-2L52,127l-6.23,9.18L18.9,137.58Z" transform="translate(-5.53 -5.7)"/><path class="cls-3" d="M69.38,123.49l1.48,13.11-18,.49.74-43.35,12.37-1.23,12.54,18.85.74-17.29,13.19-1.56,3.85,44.58-18.85.49Z" transform="translate(-5.53 -5.7)"/><path class="cls-4" d="M133,92.92l13.69-.24,11.39-.17,11.22,16.39-12.62,12.7-8.93,1.89.49,13.36-20,.73Zm14.26,16.15,4.84-2-.82-1.56-4.18-.25Z" transform="translate(-5.53 -5.7)"/><path class="cls-5" d="M188.2,126.93l.33,9.92-19.26.73L174,92.76l23.35-.25,11.31,15.16-8.6,11.89,11.63,10.65-15.48,7.37Zm-.57-16.47,4.59-2.46-.66-1.88h-4.09Z" transform="translate(-5.53 -5.7)"/><path class="cls-6" d="M212.54,137.34,214,97.59l9.83-5.08,23.68,3.94v10.49l-20.32,1.8.57,2.7,12.63-1.72L242,120l-11.88,2.86.33,1.48,20-3.2,1.89,16.47H233.28Z" transform="translate(-5.53 -5.7)"/><path class="cls-3" d="M273.84,119.31l-.74,18.27-19.91-3.77,9.91-41.3H275l4.59,13.69,5-13.69,11.23.25,12.7,39.17-17.29,5.65-2.95-20.16L281.38,131Z" transform="translate(-5.53 -5.7)"/><path class="cls-4" d="M309.32,133.08l3.77-39.42,13.2-1.15,3.76,41.22-14.17,4Z" transform="translate(-5.53 -5.7)"/><path class="cls-5" d="M330.87,112l13.85-17.54,19.18-2,14.34,15.65L367.83,135l-25.24,2.62Zm23.69,6.14,5.73-5.16-6.63-6-4.51,6Z" transform="translate(-5.53 -5.7)"/><path class="cls-6" d="M414.05,122l18.19,2.38-.16-2.38-17.37-2.86-2.55-13.53,14.18-13.11,20.49.41-1.72,14.18-10.74,1-1-4.59-5.16,5.08,14.5,1.23,10,19.84L448,137.58H410.2Z" transform="translate(-5.53 -5.7)"/><path class="cls-3" d="M448.63,112l13.85-17.54,19.18-2L496,108.16,485.59,135l-25.24,2.62Zm23.68,6.14,5.74-5.16-6.64-6-4.5,6Z" transform="translate(-5.53 -5.7)"/><path class="cls-4" d="M515.75,126.93l.32,9.92-19.25.73,4.75-44.82,23.35-.25,11.31,15.16-8.6,11.89,11.63,10.65-15.48,7.37Zm-.58-16.47,4.59-2.46-.65-1.88H515Z" transform="translate(-5.53 -5.7)"/><path class="cls-5" d="M544.84,92.92l13.68-.24,11.39-.17,11.23,16.39-12.62,12.7-8.93,1.89.49,13.36-20,.73Zm14.26,16.15,4.83-2-.82-1.56-4.18-.25Z" transform="translate(-5.53 -5.7)"/><path class="cls-6" d="M600.07,126.93l.33,9.92-19.26.73,4.75-44.82,23.36-.25,11.31,15.16L612,119.56l11.64,10.65-15.49,7.37Zm-.57-16.47,4.59-2.46-.66-1.88h-4.1Z" transform="translate(-5.53 -5.7)"/><path class="cls-3" d="M624.41,137.34l1.47-39.75,9.84-5.08,23.68,3.94v10.49l-20.32,1.8.57,2.7,12.62-1.72L653.91,120,642,122.83l.32,1.48,20-3.2,1.88,16.47H645.14Z" transform="translate(-5.53 -5.7)"/><path class="cls-4" d="M668.91,122l18.19,2.38-.17-2.38-17.37-2.86L667,105.62,681.2,92.51l20.48.41L700,107.1l-10.73,1-1-4.59-5.17,5.08,14.51,1.23,10,19.84-4.75,7.94H665.05Z" transform="translate(-5.53 -5.7)"/><path class="cls-5" d="M738.48,126.85l-9.84-.41-3,11.14-17.21-3.11,4.1-8.77-2.46-.08,3.2-14,5.41.82,9.26-19.92h9.91l21.23,41.3-17.21,3.86Zm-3.69-12-1.64-5.24-1.31,4.83Z" transform="translate(-5.53 -5.7)"/></svg>