<?xml version="1.0" encoding="utf-8"?>
<!-- Generator: Adobe Illustrator 25.4.1, SVG Export Plug-In . SVG Version: 6.00 Build 0)  -->
<svg version="1.1" id="Layer_1" xmlns="http://www.w3.org/2000/svg" xmlns:xlink="http://www.w3.org/1999/xlink" x="0px" y="0px"
	 viewBox="0 0 452.47 226.54" style="enable-background:new 0 0 452.47 226.54;" xml:space="preserve">
<style type="text/css">
	.st0{enable-background:new    ;}
	.st1{fill:#791028;}
	.st2{fill:none;stroke:#791028;stroke-miterlimit:10;}
</style>
<g>
	<g>
		<g class="st0">
			<path class="st1" d="M271.54,111.21c0,1.86-0.45,3.62-1.35,5.28c-0.9,1.66-2.1,3.11-3.59,4.35c-1.49,1.24-3.2,2.23-5.11,2.96
				c-1.92,0.73-3.89,1.1-5.91,1.1c-2.37,0-4.48-0.59-6.33-1.77c-3.61,1.86-7.55,2.79-11.83,2.79c-1.46,0-2.87-0.15-4.22-0.46
				c-1.35-0.31-2.56-0.82-3.63-1.52c-1.07-0.7-1.92-1.62-2.53-2.75c-0.62-1.13-0.93-2.5-0.93-4.14c0-1.97,0.56-3.86,1.69-5.66
				c1.13-1.8,2.39-3.35,3.8-4.65c1.75-1.58,3.73-3.07,5.96-4.48c2.22-1.41,4.24-2.76,6.04-4.06c0.34-1.35,0.8-2.79,1.39-4.31
				c0.59-1.52,1.28-2.93,2.07-4.22c-4.73,0-9.22,0.79-13.47,2.37c-4.25,1.58-7.96,3.73-11.11,6.46c-3.15,2.73-5.66,5.93-7.52,9.59
				c-1.86,3.66-2.79,7.55-2.79,11.66c0,2.87,0.55,5.35,1.65,7.43c1.1,2.08,2.62,3.81,4.56,5.19s4.22,2.39,6.84,3.04
				c2.62,0.65,5.48,0.97,8.57,0.97c3.77,0,7.36-0.54,10.77-1.6c3.41-1.07,6.55-2.79,9.42-5.15c0.28-0.23,0.49-0.32,0.63-0.3
				s0.1,0.21-0.13,0.55c-0.51,0.79-1.38,1.59-2.62,2.41c-1.24,0.82-2.79,1.58-4.65,2.28s-3.96,1.28-6.29,1.73
				c-2.34,0.45-4.86,0.68-7.56,0.68c-3.04,0-6-0.35-8.87-1.06s-5.44-1.8-7.69-3.29c-2.25-1.49-4.07-3.42-5.45-5.79
				c-1.38-2.37-2.07-5.18-2.07-8.45c0-4.17,1.08-8.02,3.25-11.57c2.17-3.55,5.03-6.64,8.57-9.29c3.55-2.65,7.6-4.72,12.16-6.21
				s9.24-2.24,14.02-2.24c0.17-0.34,0.42-0.73,0.76-1.18c0.34-0.45,0.69-0.9,1.06-1.35c0.37-0.45,0.76-0.83,1.18-1.14
				c0.42-0.31,0.83-0.46,1.22-0.46c0.51,0,0.87,0.14,1.1,0.42c0.22,0.28,0.34,0.56,0.34,0.84c0,0.51-0.1,1.07-0.3,1.69
				c-0.2,0.62-0.44,1.18-0.72,1.69c3.55,0.62,6.39,1.9,8.53,3.84c2.14,1.94,3.21,4.72,3.21,8.32c0,1.86-0.32,3.73-0.97,5.62
				c-0.65,1.89-1.51,3.7-2.58,5.45c-1.07,1.75-2.31,3.35-3.72,4.82c-1.41,1.46-2.87,2.7-4.39,3.72c0.79,0.56,1.69,1.06,2.7,1.48
				c1.01,0.42,2.06,0.63,3.13,0.63c1.35,0,2.72-0.2,4.1-0.59c1.38-0.39,2.62-1.01,3.72-1.86c1.1-0.84,1.99-1.94,2.66-3.29
				s1.01-2.98,1.01-4.9c0-1.07-0.16-2.03-0.46-2.87s-0.72-1.56-1.22-2.15c-0.51-0.59-1.07-1.06-1.69-1.39
				c-0.62-0.34-1.21-0.53-1.77-0.59c-0.11,0-0.18-0.04-0.21-0.13c-0.03-0.08,0.04-0.15,0.21-0.21c0.45,0,0.96-0.07,1.52-0.21
				c0.56-0.14,1.01-0.21,1.35-0.21c1.35,0,2.44,0.58,3.25,1.73C271.13,107.93,271.54,109.41,271.54,111.21z M248.65,122.62
				c-1.07-0.73-1.99-1.67-2.75-2.83c-0.76-1.15-1.39-2.42-1.9-3.8c-0.51-1.38-0.87-2.84-1.1-4.39c-0.23-1.55-0.34-3.11-0.34-4.69
				c0-1.13,0.03-2.18,0.08-3.17c0.05-0.98,0.2-2.04,0.42-3.17c-1.3,1.18-2.69,2.42-4.18,3.72c-1.49,1.3-2.77,2.51-3.84,3.63
				c-0.68,0.68-1.38,1.46-2.11,2.37c-0.73,0.9-1.42,1.83-2.07,2.79c-0.65,0.96-1.18,1.97-1.61,3.04c-0.42,1.07-0.63,2.11-0.63,3.12
				c0,1.24,0.25,2.25,0.76,3.04c0.51,0.79,1.18,1.41,2.03,1.86c0.84,0.45,1.79,0.76,2.83,0.93c1.04,0.17,2.1,0.25,3.17,0.25
				c1.91,0,3.86-0.22,5.83-0.68C245.21,124.19,247.02,123.52,248.65,122.62z M262.08,102.6c0-3.1-0.93-5.8-2.79-8.11
				c-1.86-2.31-4.36-3.77-7.52-4.39c-0.62,1.3-1.65,2.84-3.08,4.65c-1.44,1.8-3.08,3.58-4.94,5.32c-0.23,0.96-0.34,2.11-0.34,3.46
				c0,3.72,0.76,7.12,2.28,10.22c1.52,3.1,3.46,5.52,5.83,7.26c3.55-2.48,6.19-5.36,7.94-8.66
				C261.21,109.06,262.08,105.81,262.08,102.6z M251.35,90.01c-0.56-0.11-1.2-0.2-1.9-0.25c-0.71-0.05-1.37-0.08-1.99-0.08
				c-0.73,1.24-1.37,2.55-1.9,3.93c-0.54,1.38-0.94,2.72-1.22,4.01c1.35-0.96,2.72-2.15,4.1-3.59
				C249.82,92.59,250.79,91.25,251.35,90.01z M252.03,87.39c0-0.39-0.06-0.73-0.17-1.01c-0.11-0.28-0.34-0.42-0.68-0.42
				c-0.39,0-0.76,0.11-1.1,0.34c-0.34,0.23-0.66,0.51-0.97,0.84c-0.31,0.34-0.58,0.69-0.8,1.06c-0.23,0.37-0.39,0.66-0.51,0.89
				c1.35,0,2.59,0.14,3.72,0.42c0.11-0.34,0.22-0.69,0.34-1.06C251.97,88.08,252.03,87.73,252.03,87.39z"/>
		</g>
		<g class="st0">
			<path class="st1" d="M211.09,51.91c0.86,0.43,1.67,0.94,2.41,1.53c0.74,0.59,1.11,1.04,1.11,1.34c0,0.31-0.26,0.4-0.79,0.28
				c-0.53-0.12-1.19-0.43-1.99-0.93c-0.68-0.49-1.34-0.83-1.99-1.02c-0.65-0.19-1.5-0.34-2.55-0.46c-2.04-0.25-4.8-0.08-8.29,0.51
				c-3.49,0.59-7.37,1.56-11.63,2.92l-2.04,0.65l-0.83,1.58c-4.57,8.65-9.61,16.74-15.11,24.28c-2.97,4.08-6.09,7.86-9.36,11.35
				c-3.28,3.49-6.58,6.56-9.92,9.22c-3.52,2.78-6.83,4.96-9.92,6.53c-3.09,1.58-6.21,2.64-9.36,3.2c-0.87,0.12-2.01,0.19-3.43,0.19
				c-1.42,0-2.47-0.06-3.15-0.19c-2.1-0.5-3.74-1.27-4.91-2.32c-1.17-1.05-2.01-2.53-2.5-4.45c-0.25-0.8-0.37-1.82-0.37-3.06
				c0-1.24,0.09-2.32,0.28-3.24c0.43-2.16,1.28-4.42,2.55-6.76c1.27-2.35,2.87-4.71,4.82-7.09c1.95-2.38,4.22-4.73,6.81-7.04
				s5.41-4.49,8.43-6.53c9.58-6.49,21.31-12.02,35.21-16.59c1.17-0.43,2.27-0.8,3.29-1.11c1.02-0.31,1.68-0.52,1.99-0.65l0.93-0.19
				l1.3-2.69c3.58-7.41,6.07-14.32,7.46-20.71c1.39-6.39,1.59-11.72,0.6-15.99c-0.19-0.8-0.48-1.62-0.88-2.46
				c-0.4-0.83-0.79-1.47-1.16-1.9c-1.54-1.85-4.26-2.87-8.16-3.06c-3.03-0.12-6.49,0.39-10.38,1.53c-3.89,1.14-7.97,2.89-12.23,5.24
				c-3.03,1.61-5.85,3.37-8.48,5.28c-2.63,1.92-4.97,3.91-7.04,5.98c-2.07,2.07-3.83,4.17-5.28,6.3c-1.45,2.13-2.52,4.22-3.2,6.25
				c-0.74,2.16-1.02,4.17-0.83,6.02c0.19,1.85,0.8,3.37,1.85,4.54c0.49,0.5,0.96,0.83,1.39,1.02c0.43,0.19,1.08,0.28,1.95,0.28
				c0.86,0,1.71-0.09,2.55-0.28s1.78-0.43,2.83-0.74c6.49-2.16,11.99-6.02,16.5-11.58c0.68-0.86,1.25-1.67,1.71-2.41
				c0.46-0.74,1-1.7,1.62-2.87l1.11-1.85l0.74-0.09c0.62,0,1.3,0.23,2.04,0.7c0.74,0.46,1.27,0.97,1.58,1.53
				c0.31,0.74,0.12,1.11-0.56,1.11c-0.19,0-0.34,0.03-0.46,0.09c-0.12,0.06-0.29,0.2-0.51,0.42c-0.22,0.22-0.51,0.54-0.88,0.97
				c-0.37,0.43-0.9,1.05-1.58,1.85c-2.97,3.52-5.98,6.5-9.04,8.94c-3.06,2.44-6.13,4.25-9.22,5.42c-1.17,0.5-2.19,0.82-3.06,0.97
				c-0.87,0.15-1.82,0.23-2.87,0.23c-1.17,0-2.13-0.09-2.87-0.28c-0.74-0.19-1.64-0.52-2.69-1.02c-0.68-0.31-1.19-0.59-1.53-0.83
				c-0.34-0.25-0.82-0.68-1.44-1.3c-0.56-0.56-0.96-1-1.2-1.34c-0.25-0.34-0.53-0.79-0.83-1.34c-0.37-0.86-0.63-1.61-0.79-2.22
				c-0.16-0.62-0.26-1.42-0.32-2.41c-0.25-4.26,1.37-8.76,4.87-13.48c3.49-4.73,8.45-9.22,14.87-13.48
				c8.03-5.31,16.34-8.62,24.93-9.92c0.43-0.06,1.05-0.11,1.85-0.14c0.8-0.03,1.62-0.05,2.46-0.05s1.61,0.02,2.32,0.05
				c0.71,0.03,1.22,0.08,1.53,0.14c4.63,1.05,8.19,3.4,10.66,7.04c1.05,1.61,1.82,3.26,2.32,4.96c0.49,1.7,0.8,3.69,0.93,5.98
				c0.12,3.52-0.36,7.52-1.44,12c-1.08,4.48-2.8,9.53-5.14,15.15c-0.12,0.31-0.25,0.62-0.37,0.93c-0.12,0.31-0.25,0.59-0.37,0.83
				c-0.12,0.25-0.22,0.5-0.28,0.74c0,0.06,0.23,0.03,0.69-0.09c0.46-0.12,1-0.25,1.62-0.37c0.68-0.12,1.51-0.28,2.5-0.46
				c0.99-0.19,1.88-0.34,2.69-0.46c0.62-0.12,1.14-0.2,1.58-0.23c0.43-0.03,0.88-0.06,1.34-0.09c0.46-0.03,0.97-0.05,1.53-0.05
				s1.24,0,2.04,0c2.35,0,4.15,0.11,5.42,0.32C208.32,50.69,209.67,51.17,211.09,51.91z M177.64,59.79
				c0.06-0.19,0.03-0.26-0.09-0.23c-0.12,0.03-0.53,0.17-1.21,0.42c-6.61,2.59-13.28,5.9-20.02,9.92
				c-6.73,4.02-13.01,8.46-18.81,13.34c-3.83,3.21-7.04,6.47-9.64,9.78c-2.59,3.3-4.29,6.35-5.1,9.13
				c-0.31,0.93-0.46,1.85-0.46,2.78s0.12,1.7,0.37,2.32c0.56,1.54,1.7,2.59,3.43,3.15c0.43,0.12,1.02,0.15,1.76,0.09
				c0.74-0.06,1.54-0.22,2.41-0.46c4.14-1.05,8.7-3.57,13.67-7.55c4.97-3.98,10.09-9.22,15.34-15.71c1.11-1.36,2.27-2.83,3.48-4.4
				s2.41-3.21,3.61-4.91s2.38-3.38,3.52-5.05c1.14-1.67,2.18-3.27,3.1-4.82c0.31-0.49,0.69-1.13,1.16-1.9
				c0.46-0.77,0.93-1.56,1.39-2.36c0.46-0.8,0.9-1.53,1.3-2.18C177.25,60.48,177.51,60.03,177.64,59.79z"/>
			<path class="st1" d="M254.55,44.4c0.25-0.06,0.48-0.05,0.7,0.05c0.22,0.09,0.38,0.2,0.51,0.32c0.18,0.12,0.34,0.28,0.46,0.46
				c-3.83,2.6-7.58,4.36-11.26,5.28c-3.68,0.93-6.81,1.33-9.41,1.21c-0.43,1.17-0.91,2.36-1.44,3.57c-0.53,1.2-1.05,2.36-1.58,3.47
				c-0.53,1.11-1.04,2.13-1.53,3.06c-0.5,0.93-0.96,1.7-1.39,2.32c-1.67,2.59-3.6,4.74-5.79,6.44c-2.19,1.7-4.43,2.89-6.72,3.57
				c-0.74,0.19-1.78,0.28-3.1,0.28c-1.33,0-2.3-0.09-2.92-0.28c-1.42-0.43-2.69-1.21-3.8-2.32c-2.78-2.78-4.08-6.58-3.89-11.4
				c0.06-0.56,0.09-1.02,0.09-1.39c0-0.37-0.03-0.56-0.09-0.56c0-0.68,0.08-1.36,0.23-2.04c0.16-0.68,0.32-1.27,0.51-1.76
				c0.25-0.62,0.5-1.21,0.74-1.76c0.12-0.19,0.23-0.39,0.32-0.6c0.09-0.22,0.2-0.45,0.32-0.7c0.87-1.79,1.9-3.37,3.1-4.73
				c1.2-1.36,2.7-2.66,4.49-3.89c1.11-0.8,2.05-1.34,2.83-1.62c0.77-0.28,1.59-0.42,2.46-0.42l0.83-0.09v-0.46
				c0-1.05,0.39-2.27,1.16-3.66c0.77-1.39,1.68-2.58,2.73-3.57c1.05-1.05,2.13-1.79,3.24-2.22c1.11-0.43,2.28-0.65,3.52-0.65
				c3.15,0,5.44,1.17,6.86,3.52c0.8,1.3,1.33,2.86,1.58,4.68c0.25,1.82,0.19,3.63-0.19,5.42c-0.12,0.37-0.26,0.85-0.42,1.44
				c-0.15,0.59-0.32,1.16-0.51,1.71c-0.18,0.68-0.4,1.36-0.65,2.04l-0.37,1.02c2.16,0.12,4.32-0.11,6.49-0.7
				c2.16-0.59,4.14-1.25,5.93-1.99C250.66,46.6,252.64,45.58,254.55,44.4z M228.05,59.23c0.62-0.93,1.34-2.16,2.18-3.71
				c0.83-1.54,1.5-2.87,1.99-3.99c-1.36-0.12-2.72-0.4-4.08-0.83c-1.11-0.37-2.3-0.93-3.57-1.67c-1.27-0.74-2.36-1.73-3.29-2.96
				l-0.56-0.65l-1.11,1.11c-0.62,0.68-1.39,1.62-2.32,2.83c-0.93,1.21-1.73,2.3-2.41,3.29c-1.24,1.85-2.18,3.77-2.83,5.75
				c-0.65,1.98-0.97,3.92-0.97,5.84c0,1.05,0.08,1.95,0.23,2.69s0.45,1.48,0.88,2.22c0.31,0.68,0.79,1.3,1.44,1.85
				c0.65,0.56,1.19,0.83,1.62,0.83c0.06,0,0.22-0.06,0.46-0.18c0.25-0.12,0.52-0.25,0.83-0.37c1.67-0.86,3.51-2.35,5.51-4.45
				C224.08,64.73,226.07,62.19,228.05,59.23z M234.54,41.62c0.12-0.93,0.14-1.93,0.05-3.01c-0.09-1.08-0.28-2.08-0.56-3.01
				c-0.28-0.93-0.65-1.7-1.11-2.32c-0.46-0.62-1.04-0.96-1.71-1.02c-1.36-0.12-2.55,0.36-3.57,1.44c-1.02,1.08-1.9,2.43-2.64,4.03
				c-0.8,1.61-1.16,3-1.07,4.17c0.09,1.17,0.45,2.38,1.07,3.61c0.49,0.93,1.17,1.68,2.04,2.27c0.86,0.59,1.73,1.07,2.59,1.44
				c1.05,0.43,2.13,0.74,3.24,0.93l0.83-3.52c0.19-0.62,0.34-1.39,0.46-2.32C234.29,43.38,234.41,42.49,234.54,41.62z"/>
			<path class="st1" d="M300.24,44.4c0.37,0,0.62,0.09,0.74,0.28c0.12,0.19,0.19,0.37,0.19,0.56c-0.06,0.25-0.15,0.5-0.28,0.74
				c-0.06,0-0.28,0.25-0.65,0.74c-0.25,0.37-0.87,1.17-1.85,2.41c-0.99,1.24-2.08,2.59-3.29,4.08c-1.21,1.48-2.38,2.92-3.52,4.31
				c-1.14,1.39-1.99,2.43-2.55,3.1c-1.42,1.85-2.67,3.41-3.75,4.68c-1.08,1.27-2.07,2.33-2.97,3.2c-0.9,0.87-1.71,1.59-2.46,2.18
				c-0.74,0.59-1.51,1.07-2.32,1.44c-0.87,0.5-1.59,0.82-2.18,0.97c-0.59,0.15-1.28,0.2-2.08,0.14c-0.8,0-1.59-0.06-2.36-0.19
				c-0.77-0.12-1.41-0.4-1.9-0.83c-1.42-1.11-2.26-2.47-2.5-4.08c-0.25-1.61-0.22-3.3,0.09-5.1c0.12-0.49,0.19-0.89,0.19-1.2h0.09
				c0.37-1.42,0.85-2.72,1.44-3.89c0.59-1.17,1.24-2.24,1.95-3.2c0.71-0.96,1.39-1.84,2.04-2.64c0.65-0.8,1.19-1.58,1.62-2.32
				c0.49-0.8,0.68-1.33,0.56-1.58c-0.12-0.25-0.34-0.34-0.65-0.28c-0.31,0-0.77,0.12-1.39,0.37l-1.58,0.83
				c-1.36,0.74-2.63,1.47-3.8,2.18c-1.17,0.71-2.43,1.61-3.75,2.69c-1.33,1.08-2.86,2.44-4.59,4.08c-1.73,1.64-3.89,3.72-6.49,6.26
				c-0.31,0.37-0.69,0.83-1.16,1.39c-0.46,0.56-0.93,1.1-1.39,1.62c-0.46,0.53-0.85,0.99-1.16,1.39c-0.31,0.4-0.49,0.6-0.56,0.6
				c-0.31,0.12-0.71,0.19-1.2,0.19c-0.49,0-0.9-0.06-1.21-0.19c-0.37-0.25-0.59-0.43-0.65-0.56c-0.12-0.19-0.19-0.37-0.19-0.56
				c0-0.19,0.06-0.65,0.19-1.39c0.31-1.48,0.93-3.49,1.85-6.02c0.31-0.93,0.59-1.71,0.83-2.36c0.25-0.65,0.43-1.1,0.56-1.34
				c0.06,0,0.09-0.03,0.09-0.09c0.19-0.49,0.7-1.58,1.53-3.24s1.71-3.43,2.64-5.28c1.05-2.16,2.22-4.54,3.52-7.14
				c0.25-0.37,0.49-0.63,0.74-0.79c0.25-0.15,0.62-0.26,1.11-0.32c0.37-0.06,0.65-0.08,0.83-0.05c0.19,0.03,0.52,0.2,1.02,0.51
				c1.24,0.62,1.85,1.3,1.85,2.04c0,0.25-0.29,1.05-0.88,2.41c-0.59,1.36-1.31,2.9-2.18,4.63c-0.87,1.73-1.81,3.52-2.83,5.38
				s-1.93,3.43-2.73,4.73l-0.46,0.83l1.58-1.48c1.11-1.05,2.32-2.1,3.61-3.15c1.3-1.05,2.56-2.05,3.8-3.01
				c1.24-0.96,2.44-1.82,3.61-2.59c1.17-0.77,2.22-1.44,3.15-1.99c0.37-0.19,0.8-0.42,1.3-0.7c0.49-0.28,1-0.54,1.53-0.79
				c0.52-0.25,1-0.46,1.44-0.65c0.43-0.19,0.74-0.31,0.93-0.37c0.68-0.25,1.5-0.14,2.46,0.32c0.96,0.46,1.68,1.13,2.18,1.99
				c0.12,0.31,0.2,0.56,0.23,0.74c0.03,0.19,0.05,0.59,0.05,1.21c0,0.5-0.03,0.9-0.09,1.2c-0.06,0.31-0.16,0.71-0.28,1.21
				c-0.31,0.99-0.76,2.19-1.34,3.61c-0.59,1.42-1.25,2.9-1.99,4.45c-0.68,1.98-1.16,3.83-1.44,5.56c-0.28,1.73-0.17,3.06,0.32,3.98
				c0.12,0.31,0.43,0.53,0.93,0.65c0.49,0.12,1.17-0.06,2.04-0.56c0.74-0.37,1.44-0.79,2.08-1.25c0.65-0.46,1.42-1.1,2.32-1.9
				c0.89-0.8,1.93-1.87,3.1-3.2c1.17-1.33,2.62-3.04,4.36-5.14c0.93-1.11,1.98-2.38,3.15-3.8c1.17-1.42,2.35-2.83,3.52-4.22
				c1.17-1.39,2.24-2.66,3.2-3.8C299.11,45.9,299.81,45.02,300.24,44.4z"/>
			<path class="st1" d="M346.11,44.77c0.62,0.06,0.93,0.37,0.93,0.93c-0.06,0.19-0.16,0.43-0.28,0.74c0-0.06-0.22,0.19-0.65,0.74
				c-0.25,0.37-0.87,1.16-1.85,2.36c-0.99,1.21-2.07,2.55-3.24,4.03c-1.17,1.48-2.33,2.92-3.48,4.31c-1.14,1.39-1.99,2.42-2.55,3.1
				c-1.48,1.85-2.77,3.41-3.85,4.68c-1.08,1.27-2.07,2.35-2.96,3.24c-0.9,0.9-1.71,1.62-2.46,2.18c-0.74,0.56-1.51,1.05-2.32,1.48
				c-0.87,0.43-1.59,0.73-2.18,0.88c-0.59,0.16-1.28,0.23-2.09,0.23c-0.74-0.06-1.34-0.17-1.81-0.32c-0.46-0.15-0.94-0.48-1.44-0.97
				c-1.05-1.05-1.68-2.44-1.9-4.17c-0.22-1.73-0.08-3.68,0.42-5.84c0.19-0.56,0.28-0.93,0.28-1.11c0.12-0.43,0.29-0.96,0.51-1.58
				c0.22-0.62,0.45-1.2,0.7-1.76c0.25-0.74,0.52-1.48,0.83-2.22c0.12-0.12,0.28-0.42,0.46-0.88c0.18-0.46,0.4-0.97,0.65-1.53
				c0.49-1.17,0.96-2.15,1.39-2.92c0.43-0.77,1.02-1.68,1.76-2.73c0.31-0.43,0.6-0.85,0.88-1.25c0.28-0.4,0.54-0.79,0.79-1.16
				c-2.47,1.98-5.1,4.23-7.88,6.77c-2.78,2.53-5.25,5.19-7.41,7.97c-2.41,3.03-4.53,4.99-6.35,5.88c-1.82,0.9-3.32,1.1-4.49,0.6
				c-1.17-0.49-2.04-1.45-2.59-2.87c-0.56-1.42-0.77-2.9-0.65-4.45c0.12-1.54,0.53-3.23,1.2-5.05c0.68-1.82,1.65-3.69,2.92-5.61
				c1.27-1.91,2.86-3.83,4.77-5.75c1.91-1.91,4.17-3.71,6.76-5.38c2.04-1.3,3.81-2.05,5.33-2.27c1.51-0.22,2.83-0.12,3.94,0.28
				c1.11,0.4,1.98,1,2.6,1.81c0.62,0.8,1.05,1.62,1.3,2.46c0.25,0.83,0.26,1.56,0.05,2.18c-0.22,0.62-0.6,0.93-1.16,0.93
				c0.19-0.56,0.28-1.05,0.28-1.48c-0.06-0.31-0.22-0.62-0.46-0.93c-0.25-0.31-0.71-0.46-1.39-0.46c-0.74,0-1.61,0.06-2.59,0.18
				c-0.99,0.12-2.13,0.54-3.43,1.25c-1.3,0.71-2.72,1.84-4.26,3.38c-1.54,1.54-3.24,3.77-5.1,6.67c-1.85,2.9-3.18,5.25-3.98,7.04
				s-1.27,3.12-1.39,3.98c-0.12,0.87,0.02,1.34,0.42,1.44c0.4,0.09,0.91-0.08,1.53-0.51c0.31-0.25,1.05-0.96,2.22-2.13
				c1.17-1.17,2.58-2.58,4.22-4.22c1.64-1.64,3.41-3.37,5.33-5.19c1.91-1.82,3.74-3.46,5.47-4.91c1.73-1.45,3.27-2.61,4.63-3.47
				c1.36-0.87,2.32-1.14,2.87-0.83c0.19-0.06,0.65-0.09,1.39-0.09c0.49,0,0.88,0.02,1.16,0.05c0.28,0.03,0.63,0.11,1.07,0.23
				c0.87,0.31,1.59,0.7,2.18,1.16c0.59,0.46,0.88,0.94,0.88,1.44c0,0.31-0.12,0.7-0.37,1.16c-0.25,0.46-0.68,1.13-1.3,1.99
				c-0.31,0.43-0.65,0.93-1.02,1.48s-0.68,1.05-0.93,1.48c-0.31,0.37-0.67,0.85-1.07,1.44c-0.4,0.59-0.79,1.13-1.16,1.62
				c-0.56,0.74-1.16,1.61-1.81,2.59c-0.65,0.99-1.3,1.99-1.95,3.01s-1.24,2.01-1.76,2.97c-0.53,0.96-0.94,1.75-1.25,2.36
				c-0.56,1.24-0.93,2.41-1.11,3.52c-0.18,1.11-0.12,1.98,0.19,2.59c0.49,1.11,1.54,1.24,3.15,0.37c0.74-0.37,1.48-0.85,2.22-1.44
				c0.74-0.59,1.59-1.36,2.55-2.32c0.96-0.96,2.07-2.16,3.34-3.61c1.27-1.45,2.76-3.23,4.49-5.33c0.93-1.11,1.98-2.36,3.15-3.75
				c1.17-1.39,2.33-2.78,3.47-4.17c1.14-1.39,2.19-2.67,3.15-3.85C344.98,46.29,345.68,45.39,346.11,44.77z"/>
		</g>
		<g class="st0">
			<path class="st1" d="M94.66,202.32c-1.17,0-2.02-0.02-2.55-0.05c-0.53-0.03-1.04-0.11-1.53-0.23c-5.07-1.3-8.12-4.29-9.17-8.99
				c-0.25-1.17-0.37-2.59-0.37-4.26c0-1.67,0.12-3.06,0.37-4.17c0.68-3.15,1.93-6.12,3.75-8.9c1.82-2.78,3.94-5.03,6.35-6.76
				c1.42-0.99,3.32-1.88,5.7-2.69c2.38-0.8,4.9-1.42,7.55-1.85c0.62-0.12,1.42-0.22,2.41-0.28c0.99-0.06,2.01-0.09,3.06-0.09
				c1.05,0,2.08,0.03,3.1,0.09c1.02,0.06,1.9,0.16,2.64,0.28c1.79,0.25,4.2,0.7,7.23,1.34c3.03,0.65,6.36,1.41,10.01,2.27
				c1.67,0.43,2.98,0.77,3.94,1.02c0.96,0.25,1.67,0.42,2.13,0.51c0.46,0.09,0.77,0.12,0.93,0.09c0.15-0.03,0.26-0.08,0.32-0.14
				c0.12-0.06,0.54-0.4,1.25-1.02c0.71-0.62,1.53-1.3,2.46-2.04c4.76-4.08,9.62-8.54,14.6-13.39c4.97-4.85,9.59-9.68,13.85-14.5
				c0.99-1.11,2.15-2.46,3.48-4.03c1.33-1.58,2.64-3.17,3.94-4.77c1.3-1.61,2.47-3.1,3.52-4.49c1.05-1.39,1.79-2.39,2.22-3.01
				c0.62-0.86,1.1-1.65,1.44-2.36c0.34-0.71,0.51-1.22,0.51-1.53c0-0.25,0.06-0.49,0.19-0.74c0.25-0.19,0.71-0.2,1.39-0.05
				c0.68,0.16,1.23,0.42,1.67,0.79l1.3,0.65c1.23,0.43,1.98,0.99,2.22,1.67c0.06,0.12,0.14,0.31,0.23,0.56
				c0.09,0.25,0.2,0.53,0.32,0.83c0.19,0.43,0.31,0.79,0.37,1.07c0.06,0.28,0.09,0.94,0.09,1.99c0,0.62-0.02,1.16-0.05,1.62
				c-0.03,0.46-0.09,0.94-0.19,1.44c-0.09,0.5-0.25,1.08-0.46,1.76c-0.22,0.68-0.48,1.51-0.79,2.5
				c-1.79,5.31-5.19,12.63-10.19,21.96c-1.73,3.15-3.32,6.24-4.77,9.27c-1.45,3.03-2.61,5.53-3.48,7.51l-0.37,1.02l0.83-0.09
				c0.37-0.06,0.86-0.15,1.48-0.28c0.62-0.12,1.25-0.26,1.9-0.42c0.65-0.15,1.31-0.32,1.99-0.51c0.68-0.19,1.24-0.34,1.67-0.46
				c2.1-0.68,3.8-1.48,5.1-2.41c0.49-0.37,0.85-0.59,1.07-0.65c0.22-0.06,0.45,0.06,0.69,0.37c0.19,0.19,0.25,0.32,0.19,0.42
				c-0.06,0.09-0.28,0.32-0.65,0.7c-2.1,1.85-6.06,3.46-11.86,4.82c-0.74,0.19-1.39,0.34-1.95,0.46c-0.56,0.12-0.9,0.22-1.02,0.28
				c-0.37,0.18-1.02,1.85-1.95,5c-0.68,2.41-1.14,4.68-1.39,6.81c-0.25,2.13-0.31,4.19-0.19,6.16c0.37,4.02,1.21,7.26,2.5,9.73
				c1.23,2.35,3.13,4.08,5.7,5.19c2.56,1.11,5.2,1.36,7.92,0.74c1.48-0.31,2.98-0.79,4.49-1.44c1.51-0.65,2.92-1.38,4.22-2.18
				c1.3-0.8,2.46-1.68,3.48-2.64c1.02-0.96,1.81-1.93,2.36-2.92c0.43-0.8,0.77-1.48,1.02-2.04c0.37-0.99,0.86-1.39,1.48-1.2
				c0.25,0.06,0.37,0.17,0.37,0.32c0,0.15-0.15,0.57-0.46,1.25c-0.87,2.1-1.99,3.86-3.38,5.28c-1.39,1.42-3.38,2.81-5.98,4.17
				c-5.56,2.97-10.75,4.05-15.57,3.24c-2.72-0.37-5.22-1.24-7.51-2.59c-0.93-0.5-1.9-1.27-2.92-2.32c-1.02-1.05-1.81-2.01-2.36-2.87
				c-1.79-3.09-2.77-6.87-2.92-11.35c-0.15-4.48,0.54-9.04,2.09-13.67c0.12-0.25,0.25-0.56,0.37-0.93c0-0.12,0.03-0.25,0.09-0.37
				c-0.06-0.06-0.28-0.08-0.65-0.05s-0.8,0.08-1.3,0.14c-2.22,0.19-4.85,0.19-7.88,0c-3.03-0.19-6.02-0.56-8.99-1.11l-2.41-0.37
				l-0.56,0.46c-0.43,0.43-1.17,1.08-2.22,1.95c-1.05,0.87-2.18,1.79-3.38,2.78c-1.2,0.99-2.44,1.98-3.71,2.96
				c-1.27,0.99-2.36,1.82-3.29,2.5c-2.35,1.73-4.77,3.4-7.27,5c-2.5,1.61-5,3.1-7.51,4.49c-2.5,1.39-4.93,2.63-7.27,3.71
				c-2.35,1.08-4.51,1.93-6.49,2.55c-0.93,0.31-1.73,0.56-2.41,0.74c-0.68,0.19-1.34,0.34-1.99,0.46c-0.65,0.12-1.3,0.2-1.95,0.23
				C96.28,202.3,95.52,202.32,94.66,202.32z M88.73,199.35c0.68,0.43,1.7,0.66,3.06,0.7c1.36,0.03,2.75-0.14,4.17-0.51
				c2.84-0.74,6.26-2.21,10.24-4.4s8.11-4.9,12.37-8.11c1.36-1.05,3.07-2.36,5.14-3.94c2.07-1.58,4.05-3.12,5.93-4.63
				c1.88-1.51,3.51-2.83,4.87-3.94c1.36-1.11,2.01-1.7,1.95-1.76c-0.06-0.06-0.71-0.21-1.95-0.46c-1.24-0.25-2.66-0.52-4.26-0.83
				c-1.61-0.31-3.17-0.6-4.68-0.88c-1.51-0.28-2.58-0.45-3.2-0.51c-3.89-0.56-7.32-0.77-10.29-0.65c-2.97,0.12-5.62,0.59-7.97,1.39
				c-2.16,0.8-4.39,1.93-6.67,3.38c-2.29,1.45-4.23,3.04-5.84,4.77c-1.3,1.42-2.43,2.94-3.38,4.54c-0.96,1.61-1.68,3.21-2.18,4.82
				c-0.31,0.99-0.5,2.12-0.56,3.38c-0.06,1.27,0.03,2.27,0.28,3.01C86.26,196.88,87.25,198.43,88.73,199.35z M148.13,171.74
				l0.46,0.09c0.19,0.06,0.62,0.15,1.3,0.28c0.68,0.12,1.44,0.26,2.27,0.42c0.83,0.16,1.64,0.28,2.41,0.37
				c0.77,0.09,1.37,0.17,1.81,0.23c0.62,0.06,1.13,0.11,1.53,0.14c0.4,0.03,0.82,0.06,1.25,0.09c0.43,0.03,0.94,0.05,1.53,0.05
				c0.59,0,1.37,0,2.36,0c1.42,0,2.41,0,2.97,0s0.9-0.06,1.02-0.19c0.06-0.06,0.19-0.25,0.37-0.56c0.19-0.31,0.34-0.68,0.46-1.11
				c0.93-2.1,2.27-4.83,4.03-8.2s4.15-7.8,7.18-13.3c1.05-1.91,2.01-3.75,2.87-5.51c0.86-1.76,1.61-3.35,2.22-4.77
				c0.25-0.49,0.62-1.37,1.11-2.64c0.49-1.27,1.02-2.58,1.58-3.94c0.56-1.36,1.05-2.61,1.48-3.75c0.43-1.14,0.68-1.81,0.74-1.99
				c0-0.12-0.14,0-0.42,0.37c-0.28,0.37-0.66,0.87-1.16,1.48c-2.04,2.91-4.56,6.16-7.55,9.78c-3,3.61-6.23,7.29-9.68,11.03
				c-3.46,3.74-7.01,7.4-10.66,10.98c-3.65,3.58-7.14,6.83-10.47,9.73L148.13,171.74z"/>
			<path class="st1" d="M240.89,162.19c0.37,0,0.62,0.09,0.74,0.28c0.12,0.19,0.19,0.37,0.19,0.56c-0.06,0.25-0.16,0.5-0.28,0.74
				c-0.06,0-0.28,0.25-0.65,0.74c-0.25,0.37-0.87,1.17-1.85,2.41c-0.99,1.24-2.08,2.59-3.29,4.08c-1.21,1.48-2.38,2.92-3.52,4.31
				c-1.14,1.39-1.99,2.43-2.55,3.1c-1.42,1.85-2.67,3.41-3.75,4.68c-1.08,1.27-2.07,2.33-2.97,3.2c-0.9,0.87-1.71,1.59-2.46,2.18
				c-0.74,0.59-1.51,1.07-2.32,1.44c-0.87,0.5-1.59,0.82-2.18,0.97c-0.59,0.15-1.28,0.2-2.08,0.14c-0.8,0-1.59-0.06-2.36-0.19
				c-0.77-0.12-1.41-0.4-1.9-0.83c-1.42-1.11-2.26-2.47-2.5-4.08c-0.25-1.61-0.22-3.3,0.09-5.1c0.12-0.49,0.19-0.89,0.19-1.2h0.09
				c0.37-1.42,0.85-2.72,1.44-3.89c0.59-1.17,1.24-2.24,1.95-3.2c0.71-0.96,1.39-1.84,2.04-2.64c0.65-0.8,1.19-1.58,1.62-2.32
				c0.49-0.8,0.68-1.33,0.56-1.58c-0.12-0.25-0.34-0.34-0.65-0.28c-0.31,0-0.77,0.12-1.39,0.37l-1.58,0.83
				c-1.36,0.74-2.63,1.47-3.8,2.18c-1.17,0.71-2.43,1.61-3.75,2.69c-1.33,1.08-2.86,2.44-4.59,4.08c-1.73,1.64-3.89,3.72-6.49,6.26
				c-0.31,0.37-0.69,0.83-1.16,1.39c-0.46,0.56-0.93,1.1-1.39,1.62c-0.46,0.53-0.85,0.99-1.16,1.39c-0.31,0.4-0.49,0.6-0.56,0.6
				c-0.31,0.12-0.71,0.19-1.2,0.19c-0.49,0-0.9-0.06-1.21-0.19c-0.37-0.25-0.59-0.43-0.65-0.56c-0.12-0.19-0.19-0.37-0.19-0.56
				c0-0.19,0.06-0.65,0.19-1.39c0.31-1.48,0.93-3.49,1.85-6.02c0.31-0.93,0.59-1.71,0.83-2.36c0.25-0.65,0.43-1.1,0.56-1.34
				c0.06,0,0.09-0.03,0.09-0.09c0.19-0.49,0.7-1.58,1.53-3.24s1.71-3.43,2.64-5.28c1.05-2.16,2.22-4.54,3.52-7.14
				c0.25-0.37,0.49-0.63,0.74-0.79c0.25-0.15,0.62-0.26,1.11-0.32c0.37-0.06,0.65-0.08,0.83-0.05c0.19,0.03,0.52,0.2,1.02,0.51
				c1.23,0.62,1.85,1.3,1.85,2.04c0,0.25-0.29,1.05-0.88,2.41c-0.59,1.36-1.31,2.9-2.18,4.63c-0.87,1.73-1.81,3.52-2.83,5.38
				c-1.02,1.85-1.93,3.43-2.73,4.73l-0.46,0.83l1.58-1.48c1.11-1.05,2.32-2.1,3.61-3.15c1.3-1.05,2.56-2.05,3.8-3.01
				c1.23-0.96,2.44-1.82,3.61-2.59c1.17-0.77,2.22-1.44,3.15-1.99c0.37-0.19,0.8-0.42,1.3-0.7c0.49-0.28,1-0.54,1.53-0.79
				c0.52-0.25,1-0.46,1.44-0.65c0.43-0.19,0.74-0.31,0.93-0.37c0.68-0.25,1.5-0.14,2.46,0.32c0.96,0.46,1.68,1.13,2.18,1.99
				c0.12,0.31,0.2,0.56,0.23,0.74c0.03,0.19,0.05,0.59,0.05,1.21c0,0.5-0.03,0.9-0.09,1.2c-0.06,0.31-0.16,0.71-0.28,1.21
				c-0.31,0.99-0.76,2.19-1.34,3.61c-0.59,1.42-1.25,2.9-1.99,4.45c-0.68,1.98-1.16,3.83-1.44,5.56c-0.28,1.73-0.17,3.06,0.32,3.98
				c0.12,0.31,0.43,0.53,0.93,0.65c0.49,0.12,1.17-0.06,2.04-0.56c0.74-0.37,1.44-0.79,2.08-1.25c0.65-0.46,1.42-1.1,2.32-1.9
				c0.89-0.8,1.93-1.87,3.1-3.2c1.17-1.33,2.62-3.04,4.35-5.14c0.93-1.11,1.98-2.38,3.15-3.8c1.17-1.42,2.35-2.83,3.52-4.22
				c1.17-1.39,2.24-2.66,3.2-3.8C239.77,163.69,240.46,162.81,240.89,162.19z"/>
			<path class="st1" d="M303.82,162.47c0.19-0.12,0.42-0.11,0.7,0.05s0.38,0.36,0.32,0.6l-1.02,1.85l-4.91,8.99
				c-3.09,5.81-5.99,11.06-8.71,15.75c-2.72,4.7-5.1,8.62-7.14,11.77c-1.11,1.67-2.13,3.13-3.06,4.4c-0.93,1.27-1.81,2.42-2.64,3.47
				c-0.83,1.05-1.68,2.02-2.55,2.92c-0.87,0.9-1.76,1.81-2.69,2.73c-1.92,1.79-3.6,3.12-5.05,3.98c-1.45,0.87-2.95,1.48-4.49,1.85
				c-0.5,0.12-0.91,0.2-1.25,0.23c-0.34,0.03-0.82,0.01-1.44-0.05c-0.68,0-1.11-0.03-1.3-0.09c-0.18-0.06-0.43-0.16-0.74-0.28
				c-0.19-0.12-0.42-0.29-0.7-0.51c-0.28-0.22-0.54-0.45-0.79-0.7c-1.17-1.36-1.95-3.4-2.32-6.12c-0.06-0.5-0.11-1.13-0.14-1.9
				c-0.03-0.77-0.02-1.61,0.05-2.5c0.06-0.9,0.14-1.78,0.23-2.64c0.09-0.87,0.2-1.67,0.32-2.41c0.49-3.28,1.28-6.76,2.36-10.47
				c1.08-3.71,2.55-8.12,4.4-13.25c1.48-4.26,2.98-8.25,4.5-11.95c1.51-3.71,3.01-7.2,4.49-10.47c-0.06,0.06-0.12,0.16-0.19,0.28
				c-0.06,0.12-0.12,0.25-0.18,0.37c-0.06,0.12-0.16,0.28-0.28,0.46c-3.83,4.57-8.19,9.65-13.07,15.24
				c-4.88,5.59-9.95,11.14-15.2,16.63c-2.29,2.35-4.28,4.08-5.98,5.19c-1.7,1.11-3.15,1.75-4.36,1.9c-1.21,0.15-2.18-0.09-2.92-0.74
				c-0.74-0.65-1.31-1.51-1.71-2.6c-0.4-1.08-0.66-2.3-0.79-3.66c-0.12-1.36-0.12-2.69,0-3.98c0.12-1.98,0.6-4.12,1.44-6.44
				c0.83-2.32,2.07-4.68,3.71-7.09c1.64-2.41,3.66-4.8,6.07-7.18c2.41-2.38,5.25-4.62,8.53-6.72c2.53-1.61,4.71-2.56,6.53-2.87
				c1.82-0.31,3.32-0.22,4.5,0.28c1.17,0.5,2.04,1.27,2.59,2.32c0.56,1.05,0.88,2.08,0.97,3.1s-0.03,1.92-0.37,2.69
				c-0.34,0.77-0.88,1.16-1.62,1.16c0.25-0.68,0.37-1.3,0.37-1.85c-0.06-0.43-0.25-0.83-0.56-1.21c-0.31-0.37-0.93-0.56-1.85-0.56
				s-2.04,0.06-3.34,0.19c-1.3,0.12-2.78,0.62-4.45,1.48c-1.67,0.87-3.49,2.26-5.47,4.17c-1.98,1.92-4.11,4.7-6.39,8.34
				c-2.35,3.65-3.97,6.76-4.87,9.36c-0.89,2.59-1.28,4.56-1.16,5.88c0.12,1.33,0.71,2.01,1.76,2.04c1.05,0.03,2.35-0.7,3.89-2.18
				c4.33-4.2,8.35-8.22,12.09-12.05c3.74-3.83,7.15-7.43,10.24-10.8c3.09-3.37,5.84-6.42,8.25-9.17c2.41-2.75,4.48-5.08,6.21-7
				l0.28-0.56l0.19-0.37l0.65-1.39c0.43-0.8,0.94-1.75,1.53-2.83c0.59-1.08,1.22-2.19,1.9-3.34c0.68-1.14,1.34-2.24,1.99-3.29
				c0.65-1.05,1.22-1.95,1.71-2.69c0.93-1.42,1.87-2.83,2.83-4.22c0.96-1.39,1.96-2.73,3.01-4.03c1.3-1.42,2.59-2.59,3.89-3.52
				c1.05-0.74,2.15-1.27,3.29-1.58c1.14-0.31,2.15,0,3.01,0.93c0.43,0.43,0.54,1.11,0.32,2.04c-0.22,0.93-0.65,1.99-1.3,3.2
				c-0.65,1.21-1.47,2.5-2.46,3.89c-0.99,1.39-2.04,2.77-3.15,4.12c-2.53,3.21-5.56,6.71-9.08,10.47c-0.43,0.87-0.65,1.27-0.65,1.2
				l-1.67,2.87c-0.06,0.06-0.15,0.22-0.28,0.46c-0.12,0.19-0.33,0.54-0.6,1.07c-0.28,0.53-0.6,1.1-0.97,1.71
				c-1.42,2.59-2.84,5.36-4.26,8.29c-1.42,2.94-2.78,5.92-4.08,8.94c-1.3,3.03-2.49,6.04-3.57,9.04c-1.08,3-2.05,5.85-2.92,8.57
				c-1.79,5.87-2.93,11.34-3.43,16.4c-0.25,2.41-0.23,4.32,0.05,5.75c0.28,1.42,0.85,2.62,1.71,3.61c0.43,0.49,0.82,0.82,1.16,0.97
				c0.34,0.15,0.82,0.17,1.44,0.05c0.86-0.06,1.82-0.43,2.87-1.11c2.35-1.54,4.71-3.68,7.09-6.39c2.38-2.72,5.05-6.3,8.02-10.75
				c1.05-1.61,2.1-3.23,3.15-4.87c1.05-1.64,2.16-3.44,3.34-5.42c1.17-1.98,2.49-4.22,3.94-6.72c1.45-2.5,3.1-5.42,4.96-8.76
				c1.67-2.84,2.97-5.06,3.89-6.67c0.93-1.61,1.62-2.79,2.08-3.57c0.46-0.77,0.77-1.25,0.93-1.44
				C303.65,162.66,303.75,162.53,303.82,162.47z"/>
			<path class="st1" d="M337.73,162.19c0.68,0.19,1.14,0.43,1.39,0.74c0.12,0.12,0.19,0.28,0.19,0.46
				c-4.08,5.99-8,11.62-11.77,16.87c-1.61,2.22-3.28,4.49-5,6.81c-1.73,2.32-3.43,4.53-5.1,6.63c-1.67,2.1-3.26,4.02-4.77,5.75
				c-1.51,1.73-2.86,3.15-4.03,4.26c-2.35,2.22-4.39,3.83-6.12,4.82c-1.73,0.99-3.12,1.64-4.17,1.95c-1.3,0.37-2.35,0.43-3.15,0.19
				c-2.04-0.37-3.06-2.29-3.06-5.75c0-2.22,0.37-4.7,1.11-7.41c0.74-2.72,1.76-5.38,3.06-7.97c1.92-4.02,5.25-8.93,10.01-14.74
				c0.68-0.86,1.42-1.71,2.22-2.55c0.8-0.83,1.82-1.87,3.06-3.1c0.49-0.49,0.68-0.93,0.56-1.3c-0.12-0.37-0.34-0.71-0.65-1.02
				c-0.31-0.37-0.77-0.71-1.39-1.02c-1.42-0.56-2.61-1.11-3.57-1.67c-0.96-0.56-1.75-1.08-2.36-1.58c-0.68-0.56-1.23-1.08-1.67-1.58
				c-0.49-0.43-0.96-0.91-1.39-1.44c-0.43-0.52-0.77-0.97-1.02-1.34c-0.37-0.49-0.63-1.13-0.79-1.9c-0.15-0.77-0.26-1.56-0.32-2.36
				c-0.06-0.8-0.08-1.59-0.05-2.36c0.03-0.77,0.08-1.44,0.14-1.99c0.06-0.87,0.34-1.81,0.83-2.83c0.5-1.02,1.1-2.01,1.81-2.96
				c0.71-0.96,1.47-1.79,2.27-2.5c0.8-0.71,1.58-1.19,2.32-1.44c0.49-0.19,0.89-0.29,1.21-0.33c0.31-0.03,0.86-0.05,1.67-0.05
				c1.05,0,1.82,0.06,2.32,0.19c0.49,0.12,1.08,0.4,1.76,0.83c2.59,1.54,2.93,4.26,1.02,8.16c-0.12,0.25-0.4,0.8-0.83,1.67
				c-0.43,0.87-0.93,1.81-1.48,2.83c-0.56,1.02-1.08,2.01-1.58,2.97c-0.5,0.96-0.87,1.62-1.11,1.99c-0.5,0.74-0.93,1.39-1.3,1.95
				c-0.37,0.56-0.53,0.87-0.46,0.93c0.06,0.12,0.48,0.43,1.25,0.93c0.77,0.5,1.78,1.08,3.01,1.76c0.62,0.31,1.22,0.65,1.81,1.02
				c0.59,0.37,0.97,0.65,1.16,0.83c0.25,0.18,0.57,0.39,0.97,0.6c0.4,0.22,0.79,0.43,1.16,0.65c0.37,0.22,0.7,0.42,0.97,0.6
				c0.28,0.18,0.42,0.37,0.42,0.56s0.12,0.37,0.37,0.56c0.25,0.19,0.46,0.39,0.65,0.6c0.19,0.22,0.28,0.48,0.28,0.79
				c0,0.31-0.22,0.71-0.65,1.2c-0.43,0.43-0.94,0.99-1.53,1.67c-0.59,0.68-1.21,1.39-1.85,2.13s-1.28,1.47-1.9,2.18
				c-0.62,0.71-1.14,1.31-1.58,1.81c-1.36,1.61-2.73,3.4-4.12,5.38c-1.39,1.98-2.7,3.95-3.94,5.93c-1.24,1.98-2.33,3.89-3.29,5.75
				c-0.96,1.85-1.68,3.46-2.18,4.82c-0.56,1.54-0.94,2.98-1.16,4.31c-0.22,1.33-0.23,2.33-0.05,3.01c0.56,0.56,1.58,0.31,3.06-0.74
				c1.48-1.05,3.23-2.6,5.24-4.63c2.01-2.04,4.18-4.46,6.53-7.28c2.35-2.81,4.73-5.73,7.14-8.76
				C324.85,179.68,331,171.52,337.73,162.19z M310.12,143.2c-0.62,0.56-1.28,1.44-1.99,2.64c-0.71,1.21-1.33,2.5-1.85,3.89
				c-0.53,1.39-0.91,2.77-1.16,4.12c-0.25,1.36-0.25,2.44,0,3.24c0.12,0.5,0.29,0.99,0.51,1.48c0.22,0.5,0.39,0.74,0.51,0.74
				c0.06-0.12,0.15-0.25,0.28-0.37c0.06-0.12,0.14-0.25,0.23-0.37c0.09-0.12,0.2-0.25,0.32-0.37c0.68-1.05,1.39-2.35,2.13-3.89
				c0.74-1.54,1.4-3.1,1.99-4.68c0.59-1.58,1.03-3.03,1.34-4.36c0.31-1.33,0.37-2.3,0.19-2.92c-0.12-0.31-0.22-0.46-0.28-0.46
				c-0.19,0-0.51,0.14-0.97,0.42C310.9,142.59,310.49,142.89,310.12,143.2z"/>
			<path class="st1" d="M369.98,162.56c0.62,0.06,0.93,0.37,0.93,0.93c-0.06,0.19-0.16,0.43-0.28,0.74c0-0.06-0.22,0.19-0.65,0.74
				c-0.25,0.37-0.87,1.16-1.85,2.36c-0.99,1.21-2.07,2.55-3.24,4.03c-1.17,1.48-2.33,2.92-3.48,4.31c-1.14,1.39-1.99,2.42-2.55,3.1
				c-2.9,3.65-5.64,6.3-8.2,7.97c-2.56,1.67-4.65,2.84-6.25,3.52c-0.62,0.25-1.3,0.45-2.04,0.6s-1.48,0.25-2.22,0.28
				c-0.74,0.03-1.42,0.02-2.04-0.05c-0.62-0.06-1.11-0.15-1.48-0.28c-3.15-1.17-5.28-2.84-6.39-5c-1.11-2.16-1.51-4.53-1.21-7.09
				c0.31-2.56,1.17-5.17,2.59-7.83c1.42-2.66,3.09-5.08,5-7.28c1.91-2.19,3.94-3.95,6.07-5.28c2.13-1.33,4.03-1.96,5.7-1.9
				c0.99,0.06,2.01,0.23,3.06,0.51c1.05,0.28,1.95,0.57,2.69,0.88c0.49,0.25,0.93,0.5,1.3,0.74c0.37,0.25,0.71,0.53,1.02,0.83
				c0.8,0.62,1.33,1.39,1.58,2.32c0.19,0.87,0.08,1.96-0.32,3.29c-0.4,1.33-1.41,2.98-3.01,4.96c-1.3,1.54-2.77,2.81-4.4,3.8
				c-1.64,0.99-3.28,1.75-4.91,2.27c-1.64,0.53-3.17,0.9-4.59,1.11c-1.42,0.22-2.59,0.32-3.52,0.32c-0.49,1.17-0.86,2.22-1.11,3.15
				c-0.31,1.3-0.43,2.52-0.37,3.66c0.06,1.14,0.33,2.12,0.79,2.92c0.46,0.8,1.14,1.38,2.04,1.71c0.89,0.34,2.05,0.29,3.47-0.14
				c0.68-0.18,1.58-0.51,2.69-0.97c1.11-0.46,2.36-1.14,3.75-2.04c1.39-0.89,2.9-2.05,4.54-3.47c1.64-1.42,3.32-3.18,5.05-5.28
				c0.93-1.11,1.98-2.36,3.15-3.75c1.17-1.39,2.33-2.78,3.47-4.17c1.14-1.39,2.19-2.67,3.15-3.85
				C368.85,164.08,369.55,163.18,369.98,162.56z M342.46,167.29c-0.8,1.11-1.56,2.35-2.27,3.71c-0.71,1.36-1.38,2.75-1.99,4.17
				c1.79,0.06,3.44-0.2,4.96-0.79c1.51-0.59,2.89-1.34,4.12-2.27c1.24-0.93,2.38-1.98,3.43-3.15c1.05-1.17,2.01-2.35,2.87-3.52
				c0.93-1.24,1.42-2.22,1.48-2.97c0.06-0.74-0.06-1.33-0.37-1.76c-0.37-0.43-0.93-0.74-1.67-0.93c-0.19-0.06-0.36-0.08-0.51-0.05
				c-0.16,0.03-0.29,0.05-0.42,0.05c-0.12,0-0.25,0.03-0.37,0.09c-0.25,0-0.62,0.09-1.11,0.28c-1.3,0.5-2.67,1.36-4.12,2.59
				C345.04,163.99,343.69,165.5,342.46,167.29z"/>
		</g>
	</g>
</g>
<g>
	<g>
		<g>
			<line class="st2" x1="33.19" y1="117.03" x2="2.4" y2="117.03"/>
			<line class="st2" x1="56.31" y1="117.03" x2="39.4" y2="117.03"/>
			<line class="st2" x1="67.87" y1="117.03" x2="62.53" y2="117.03"/>
		</g>
		<g>
			<line class="st2" x1="418.67" y1="117.03" x2="449.45" y2="117.03"/>
			<line class="st2" x1="395.54" y1="117.03" x2="412.45" y2="117.03"/>
			<line class="st2" x1="383.98" y1="117.03" x2="389.32" y2="117.03"/>
		</g>
	</g>
</g>
</svg>
