<svg id="Layer_1" data-name="Layer 1" xmlns="http://www.w3.org/2000/svg" viewBox="0 0 286.64 127.62"><defs><style>.cls-1{fill:#fff;}.cls-2{fill:#010101;}.cls-3{fill:#2466b1;}.cls-4{fill:#fbd513;}.cls-5{fill:#db1f26;}.cls-6{fill:#459c45;}</style></defs><path class="cls-1" d="M15.68,41.53l-1.1-15.28,17.65-14.4,14.58.46-.35,12L35,25l-6.21,7.31,6.62,8,6-1.28L41,37.29l-5.57.81-1-9.23,15-2.79L55,45.59,48.15,51.4l-21.9,1.11Z" transform="translate(-8.68 -5.79)"/><path class="cls-2" d="M24,58.33,10.14,44,8.68,23.71,30.28,6.09l22.39.71-.38,13,1.19-.22,8,28L50.36,57ZM21.21,39.06l7.34,7.63,4.63-.24-1.69-2-1.06.16-.19-1.67L21.36,32.26l6.77-8v-.06h.07l4.06-4.78,8.67-.53,0-1.08-6.77-.22L20.47,28.8Zm27.22,4.27L33.79,46.42l12.14-.61,2.58-2.18Z" transform="translate(-8.68 -5.79)"/><path class="cls-1" d="M55.58,49.31l3.54-7.49-2-.12L59.94,29l4.82.76,8.48-18h8.88l19.17,37.23L86.48,52.57l-3-9.7L73.24,42.4l-2.85,9.76ZM80.09,32.12l-2-6.39-1.69,5.81Z" transform="translate(-8.68 -5.79)"/><path class="cls-2" d="M82.62,59.33,79.21,48.38l-1.76-.08-3,10.43L47.29,53.52,50.36,47l-.3,0,5.49-24.42,5.88.92,8.2-17.36h16L109.69,53Zm5.66-20.16,2.06,6.63,2.55-.6-7-13.49,2.37,7.46ZM63.87,45.1l2.5.48L69,36.51l3.14.14-3.06-.48,1.67-5.76-2.68,5.68-3.76-.59-.21.9,3.77.21Z" transform="translate(-8.68 -5.79)"/><path class="cls-1" d="M102.51,13l11.21-1.1,9.76,18.59.69-17.14,11.21-1L138.81,52l-16.26.47-5.69-12.67,1.33,11.8-16.32.4Z" transform="translate(-8.68 -5.79)"/><path class="cls-2" d="M108.19,6.67,117,5.8,118.65,9l0-.89,21.89-2L145,57.57l-26.1.74-.44-1-22.39.56.81-50.11,10.48-1m22.29,11.76-1.14,28.13,4.1-.12L130.2,18.46Zm-21.54-.38-.46,28.07,4.17-.11-3.18-28Z" transform="translate(-8.68 -5.79)"/><path class="cls-1" d="M139.39,49.31l3.54-7.49-2-.12L143.75,29l4.82.76,8.48-18h8.88L185.1,49.08l-14.81,3.49-3-9.7-10.22-.47-2.85,9.76ZM163.9,32.12l-2-6.39-1.69,5.81Z" transform="translate(-8.68 -5.79)"/><path class="cls-2" d="M166.43,59.33,163,48.38l-1.76-.08-3,10.43L131.1,53.52,134.17,47l-.3,0,5.49-24.42,5.88.92,8.2-17.36h16L193.5,53Zm5.65-20.16,2.07,6.63,2.55-.6-6.95-13.49,2.37,7.46Zm-24.4,5.93,2.5.48,2.65-9.07,3.14.14-3.06-.48,1.67-5.76-2.68,5.68-3.77-.59-.2.9,3.77.21Z" transform="translate(-8.68 -5.79)"/><path class="cls-1" d="M189.16,38.39l16.5,2.15-.17-2.15L189.8,35.78l-2.38-12.2,12.84-11.73,18,.23-1.51,12.84-8.48.87-.87-4.12L202,26.83l12.37,1.11,9.12,17.36-4.36,7.21H185.68Z" transform="translate(-8.68 -5.79)"/><path class="cls-2" d="M222.35,58.2H178.4L184,35.65l-2.75-14.12L198.08,6.12l26.58.35L221.89,30,230,45.5ZM211.88,46.81h4l1-1.7-6.18-11.77-2.06-.19,2.1.35Zm-18.92,0h16.7L193.48,44.7Zm.67-21.18.22,1.12,9.57-9.16h-1Z" transform="translate(-8.68 -5.79)"/><path class="cls-1" d="M228.25,48.44,230.52,25l-9,1.17-2.1-13.83,33.52-.75V22.07l-9.06,1.16,2.38,25.85-12.08,3.54Z" transform="translate(-8.68 -5.79)"/><path class="cls-2" d="M233.14,58.87l-10.88-7.68,1.9-19.59-7.44,1-3.9-25.74,45.82-1v21.3l-8.58,1.1,2.3,25Zm1.1-13.17,1,.68,4.93-1.45L237.7,18.28l5.88-.75L226,17.92l.29,1.91,10.56-1.36Z" transform="translate(-8.68 -5.79)"/><path class="cls-1" d="M254.85,16.32,263,11.79l21.44,3.49-.18,8-18.53,1.63.7,3.31L278,26.54l1.51,9.3-10.86,2.61.7,3.49,17.77-2.85,1.74,13.42-35.31-.18Z" transform="translate(-8.68 -5.79)"/><path class="cls-2" d="M295.32,58.24,247.61,58l1.67-45.11,12.73-7,28.27,4.6-.39,18.07-5.74.5.75,4.65L292,32.54Zm-20-11.5,7,0-.15-1.14Zm-15.9-.08,5,0-2.42-12h0l-1.81-8.57Zm4.64-28.93-3.47,1.92,9.93-.87Z" transform="translate(-8.68 -5.79)"/><path class="cls-1" d="M40.46,83.94l1.17-21.76,8.47-.86,1.57,16.23,2.64.35L52.63,62.53l9.24-1.21,3.39,21.4L61.41,88.4l-16.64.87Z" transform="translate(-8.68 -5.79)"/><path class="cls-2" d="M42.17,95.11l-7.52-9.29L36.2,57l19-1.93.13,1.36,11.27-1.49,4.63,29.12L64.53,94Zm4.56-12.48.64.8,3.8-.2Zm-.46-.57.13.16-.09-.94Z" transform="translate(-8.68 -5.79)"/><path class="cls-1" d="M76,80.54l.91,8.12L65.77,89l.46-26.83,7.66-.76L81.65,73l.46-10.7,8.16-1L92.66,89,81,89.27Z" transform="translate(-8.68 -5.79)"/><polyline class="cls-2" points="60 50.37 68.06 49.57 69.21 51.3 86.77 49.23 90.18 88.71 69.05 89.26 68.65 88.56 51.29 89.03 51.94 51.17 58.88 50.48"/><path class="cls-1" d="M115.38,61.62l8.48-.15,7-.1,7,10.14L130,79.37l-5.53,1.17.31,8.27-12.38.46Zm8.83,10,3-1.27-.5-1-2.59-.15Z" transform="translate(-8.68 -5.79)"/><path class="cls-2" d="M106.08,95.2,110.25,56l13.5-.24,10.13-.15,11.34,16.56L132.89,84.6l-2.5.53.33,9.16Zm12.81-12.66-.09.79h.12Z" transform="translate(-8.68 -5.79)"/><path class="cls-1" d="M149.57,82.67l.21,6.14-11.92.46,2.94-27.75,14.46-.15,7,9.38-5.33,7.36,7.2,6.59-9.58,4.57Zm-.35-10.19L152.06,71l-.41-1.16h-2.53Z" transform="translate(-8.68 -5.79)"/><polygon class="cls-2" points="144.12 90.62 142.64 88.66 122.82 89.42 126.99 50.09 149.41 49.85 160.65 64.91 155.84 71.55 165.54 80.42 144.12 90.62"/><path class="cls-1" d="M164.64,89.11l.91-24.6,6.09-3.14L186.3,63.8v6.49l-12.58,1.12.36,1.67L181.89,72l1,6.34-7.35,1.78.2.91,12.38-2,1.17,10.2H177.48Z" transform="translate(-8.68 -5.79)"/><polygon class="cls-2" points="187 89.18 168.73 89.17 150.05 88.95 151.3 55.19 162.03 49.65 183.32 53.18 183.32 66.89 184.43 66.72 187 89.18"/><path class="cls-1" d="M202.59,78l-.46,11.32L189.8,86.93l6.14-25.56h7.36l2.84,8.47,3.09-8.47,7,.15L224,85.77l-10.7,3.5-1.83-12.48-4.26,8.37Z" transform="translate(-8.68 -5.79)"/><polygon class="cls-2" points="200 91 199.79 89.54 199.17 90.76 198.87 90.3 174.19 85.63 182.77 49.88 196.57 49.88 196.6 49.79 211.67 50.12 222.54 83.63 200 91"/><path class="cls-1" d="M224.55,86.48l2.33-24.4,8.17-.71,2.34,25.51-8.78,2.49Z" transform="translate(-8.68 -5.79)"/><path class="cls-2" d="M227.53,95.6l-9-6.39,3.09-32.4,18.55-1.61,3.28,35.88ZM231,79.25l-.35,3.63.66-.19Z" transform="translate(-8.68 -5.79)"/><path class="cls-1" d="M237.89,73.44l8.58-10.86,11.87-1.21,8.87,9.69-6.44,16.58-15.62,1.63Zm14.66,3.8,3.55-3.19L252,70.34l-2.79,3.71Z" transform="translate(-8.68 -5.79)"/><path class="cls-2" d="M241.67,95.36,231.26,72.64l12.23-15.48,17.11-1.75,13.21,14.41-9,23.13ZM247.15,80l1.47,3.22,1.71-.18Zm10.27.57-2.18,2,1.48-.15Z" transform="translate(-8.68 -5.79)"/><path class="cls-1" d="M49.38,116.63l11.26,1.47-.1-1.47-10.75-1.78-1.58-8.37L57,98.37l12.68.25-1.06,8.78L62,108l-.61-2.84-3.19,3.15,9,.76,6.19,12.28-3,4.92H47Z" transform="translate(-8.68 -5.79)"/><path class="cls-2" d="M73.61,132H39.72L44,114.76,42,104.44,54.81,92.62l21.28.43-2.07,17,5.8,11.51Zm-7.09-11.39h0l0-.07Z" transform="translate(-8.68 -5.79)"/><path class="cls-1" d="M70.79,110.44l8.57-10.86,11.87-1.21,8.88,9.69-6.44,16.58L78,126.27Zm14.66,3.8L89,111.05l-4.11-3.71-2.79,3.71Z" transform="translate(-8.68 -5.79)"/><path class="cls-2" d="M74.57,132.36,64.16,109.64,76.38,94.16,93.5,92.41l13.2,14.41-9,23.13ZM80.05,117l1.47,3.22,1.71-.18Zm10.27.57-2.18,2,1.48-.15Z" transform="translate(-8.68 -5.79)"/><path class="cls-1" d="M112.33,119.67l.21,6.14-11.92.46,2.94-27.75L118,98.37l7,9.38-5.33,7.36,7.2,6.59-9.58,4.57ZM112,109.48l2.84-1.53-.41-1.16h-2.53Z" transform="translate(-8.68 -5.79)"/><polygon class="cls-2" points="106.88 127.62 105.4 125.66 85.58 126.42 89.75 87.08 112.17 86.85 123.41 101.91 118.61 108.55 128.3 117.42 106.88 127.62"/><path class="cls-1" d="M130.34,98.62l8.47-.15,7.06-.1,6.95,10.14L145,116.37l-5.53,1.17.31,8.27-12.38.46Zm8.83,10,3-1.27-.5-1-2.59-.15Z" transform="translate(-8.68 -5.79)"/><path class="cls-2" d="M121,132.2,125.21,93l13.5-.24,10.13-.15,11.34,16.56L147.85,121.6l-2.5.53.33,9.16Zm12.81-12.66-.09.79h.12Z" transform="translate(-8.68 -5.79)"/><path class="cls-1" d="M164.53,119.67l.21,6.14-11.92.46,2.94-27.75,14.46-.15,7,9.38-5.33,7.36,7.2,6.59-9.58,4.57Zm-.35-10.19L167,108l-.41-1.16h-2.53Z" transform="translate(-8.68 -5.79)"/><polygon class="cls-2" points="159.08 127.62 157.6 125.66 137.78 126.42 141.95 87.08 164.37 86.85 175.61 101.91 170.81 108.55 180.5 117.42 159.08 127.62"/><path class="cls-1" d="M179.6,126.11l.91-24.6,6.09-3.14,14.66,2.43v6.49l-12.58,1.12.36,1.67,7.81-1.06,1,6.34-7.35,1.78.2.91,12.38-2,1.17,10.2H192.44Z" transform="translate(-8.68 -5.79)"/><polygon class="cls-2" points="201.96 126.18 183.69 126.17 165.01 125.95 166.26 92.19 176.99 86.65 198.28 90.18 198.28 103.89 199.39 103.72 201.96 126.18"/><path class="cls-1" d="M207.15,116.63l11.26,1.47-.1-1.47-10.76-1.78L206,106.48l8.78-8.11,12.68.25-1.07,8.78-6.64.6-.61-2.84-3.2,3.15,9,.76,6.19,12.28-2.94,4.92H204.76Z" transform="translate(-8.68 -5.79)"/><path class="cls-2" d="M231.38,132h-33.9l4.26-17.2-1.94-10.32,12.77-11.82,21.28.43-2.06,17,5.8,11.51Zm-7.09-11.39h0l0-.07Z" transform="translate(-8.68 -5.79)"/><path class="cls-1" d="M250.21,119.62l-6.08-.25-1.88,6.9-10.65-1.93,2.53-5.43-1.52,0,2-8.67,3.35.5,5.73-12.32h6.14L263,123.93l-10.66,2.39Zm-2.28-7.41-1-3.24-.81,3Z" transform="translate(-8.68 -5.79)"/><path class="cls-2" d="M247.79,92.67h5.5l18.09,35.21-23,5.15-1.12-3.6-.91,3.37-23.08-4.17,2.42-5.17,4.49-19.7,4.36.66L240,92.67h5.4m10.61,26.42Z" transform="translate(-8.68 -5.79)"/><path class="cls-3" d="M13.84,39.69l-1.1-15.27L30.39,10,45,10.48l-.35,12-11.44.7L27,30.46l6.62,7.95,6-1.27-.46-1.69-5.58.81L32.54,27l15.05-2.79,5.57,19.52-6.85,5.81-21.9,1.1Z" transform="translate(-8.68 -5.79)"/><path class="cls-4" d="M53.74,47.47,57.28,40l-2-.11L58.1,27.2l4.82.76L71.4,10h8.89L99.45,47.24,84.64,50.73l-3-9.7L71.4,40.56l-2.85,9.76ZM78.25,30.28l-2-6.39L74.54,29.7Z" transform="translate(-8.68 -5.79)"/><path class="cls-5" d="M100.67,11.11,111.88,10l9.76,18.59.7-17.14,11.21-1L137,50.2l-16.26.47L115,38l1.33,11.79L100,50.2Z" transform="translate(-8.68 -5.79)"/><path class="cls-6" d="M137.55,47.47,141.09,40l-2-.11,2.85-12.67,4.82.76,8.48-18h8.89l19.16,37.23-14.81,3.49-3-9.7-10.22-.47-2.85,9.76Zm24.51-17.19-2-6.39-1.69,5.81Z" transform="translate(-8.68 -5.79)"/><path class="cls-3" d="M187.33,36.55l16.49,2.15-.17-2.15L188,33.94l-2.39-12.2L198.42,10l18,.23-1.51,12.84-8.48.87-.88-4.12L200.16,25l12.37,1.1,9.12,17.37-4.35,7.2H183.84Z" transform="translate(-8.68 -5.79)"/><path class="cls-4" d="M226.42,46.6l2.26-23.4-9,1.16-2.09-13.83,33.51-.75V20.23L242,21.4l2.38,25.84-12.08,3.55Z" transform="translate(-8.68 -5.79)"/><path class="cls-5" d="M253,14.48,261.2,10l21.44,3.49-.18,8-18.53,1.63.7,3.31,11.5-1.68L277.64,34l-10.86,2.61.7,3.49,17.77-2.85L287,50.67l-35.31-.18Z" transform="translate(-8.68 -5.79)"/><path class="cls-6" d="M38.62,82.1l1.17-21.76,8.47-.86,1.57,16.23,2.64.36L50.8,60.69,60,59.48l3.4,21.4-3.86,5.69-16.64.86Z" transform="translate(-8.68 -5.79)"/><path class="cls-3" d="M74.18,78.7l.91,8.12-11.16.3.46-26.83,7.66-.76L79.81,71.2l.46-10.71,8.17-1,2.38,27.59-11.67.31Z" transform="translate(-8.68 -5.79)"/><path class="cls-4" d="M113.55,59.78l8.47-.15,7-.1,7,10.14-7.81,7.87-5.53,1.16L123,87l-12.38.46Zm8.82,10,3-1.27-.51-1-2.59-.15Z" transform="translate(-8.68 -5.79)"/><path class="cls-5" d="M147.74,80.83l.2,6.14L136,87.43,139,59.68l14.46-.15,7,9.38-5.33,7.36,7.21,6.59-9.59,4.57Zm-.36-10.19,2.84-1.52-.4-1.17h-2.54Z" transform="translate(-8.68 -5.79)"/><path class="cls-6" d="M162.8,87.28l.92-24.61,6.08-3.14L184.46,62v6.5l-12.58,1.11.36,1.68,7.81-1.07,1,6.34-7.36,1.78.2.91,12.38-2,1.17,10.2H175.64Z" transform="translate(-8.68 -5.79)"/><path class="cls-3" d="M200.75,76.12l-.46,11.31L188,85.1l6.14-25.57h7.36L204.3,68l3.09-8.47,7,.15,7.87,24.25-10.71,3.5L209.68,75l-4.27,8.37Z" transform="translate(-8.68 -5.79)"/><path class="cls-4" d="M222.71,84.64l2.34-24.4,8.16-.71L235.55,85l-8.78,2.49Z" transform="translate(-8.68 -5.79)"/><path class="cls-5" d="M236.05,71.6l8.58-10.85,11.87-1.22,8.88,9.69-6.45,16.59-15.62,1.62Zm14.67,3.81,3.55-3.2-4.11-3.7-2.79,3.7Z" transform="translate(-8.68 -5.79)"/><path class="cls-6" d="M47.54,115.79l11.27,1.47-.11-1.47L48,114l-1.57-8.37,8.77-8.11,12.69.25-1.07,8.78-6.65.61-.6-2.84-3.2,3.14,9,.76,6.19,12.28-2.94,4.92H45.16Z" transform="translate(-8.68 -5.79)"/><path class="cls-3" d="M69,109.6l8.57-10.85,11.87-1.22,8.88,9.69-6.44,16.59L76.2,125.43Zm14.66,3.81,3.55-3.2-4.11-3.7-2.79,3.7Z" transform="translate(-8.68 -5.79)"/><path class="cls-4" d="M110.5,118.83l.2,6.14-11.92.46,2.94-27.75,14.46-.15,7,9.38-5.33,7.36,7.21,6.59-9.59,4.57Zm-.36-10.19,2.84-1.52-.4-1.17H110Z" transform="translate(-8.68 -5.79)"/><path class="cls-5" d="M128.51,97.78l8.47-.15,7.05-.1L151,107.67l-7.81,7.87-5.53,1.16.3,8.27-12.38.46Zm8.82,10,3-1.27-.51-1-2.59-.15Z" transform="translate(-8.68 -5.79)"/><path class="cls-6" d="M162.7,118.83l.2,6.14-11.92.46,2.94-27.75,14.46-.15,7,9.38-5.33,7.36,7.21,6.59-9.59,4.57Zm-.36-10.19,2.84-1.52-.4-1.17h-2.54Z" transform="translate(-8.68 -5.79)"/><path class="cls-3" d="M177.76,125.28l.92-24.61,6.08-3.14L199.42,100v6.5l-12.58,1.11.36,1.68,7.81-1.07,1,6.34-7.36,1.78.2.91,12.38-2,1.17,10.2H190.6Z" transform="translate(-8.68 -5.79)"/><path class="cls-4" d="M205.31,115.79l11.26,1.47-.1-1.47L205.71,114l-1.57-8.37,8.78-8.11,12.68.25-1.07,8.78-6.64.61-.61-2.84-3.2,3.14,9,.76,6.19,12.28-2.94,4.92H202.92Z" transform="translate(-8.68 -5.79)"/><path class="cls-5" d="M248.38,118.78l-6.09-.25-1.88,6.9-10.65-1.93,2.54-5.43-1.53,0,2-8.67,3.35.51,5.73-12.33H248l13.14,25.57-10.65,2.38Zm-2.29-7.4-1-3.25-.81,3Z" transform="translate(-8.68 -5.79)"/></svg>