<svg id="Layer_1" data-name="Layer 1" xmlns="http://www.w3.org/2000/svg" viewBox="0 0 253.93 283.72"><defs><style>.cls-1{fill:#fbed24;}.cls-2{fill:#ead917;}.cls-3{fill:#fdf173;}.cls-4{opacity:0.2;}.cls-5{fill:#010101;}.cls-6{fill:#fff;}</style></defs><path class="cls-1" d="M199.78,162.13,210.54,240l-70.16-32.23a3.36,3.36,0,0,0-2.81,0L66,240,76.1,163.47a3.37,3.37,0,0,0-.9-2.77L20.78,103.11h.09L97.24,89.21a3.42,3.42,0,0,0,2.4-1.76L136.94,16l37.94,71.46a3.39,3.39,0,0,0,2.45,1.75l77,12.63-53.71,57.5A3.38,3.38,0,0,0,199.78,162.13Z" transform="translate(-10.63 -5.34)"/><path class="cls-2" d="M199.78,162.13,210.54,240l-70.16-32.23a3.36,3.36,0,0,0-2.81,0L66,240l71.2-49.92,55,26.46L187.82,165l66.55-63.18-53.71,57.5A3.38,3.38,0,0,0,199.78,162.13Z" transform="translate(-10.63 -5.34)"/><path class="cls-3" d="M136.94,16,106,100.47s-81.15,2.1-85.17,2.63L97.24,89.21a3.42,3.42,0,0,0,2.4-1.76Z" transform="translate(-10.63 -5.34)"/><g class="cls-4"><ellipse class="cls-5" cx="132.09" cy="275.58" rx="89.4" ry="8.14"/></g><rect class="cls-5" x="98.66" y="91.19" width="13.05" height="37.97" rx="6.17"/><rect class="cls-5" x="142.22" y="91.19" width="13.05" height="37.97" rx="6.17"/><path class="cls-6" d="M114.41,109.58c0,5-.85,9.11-1.9,9.11s-1.9-4.08-1.9-9.11.85-9.11,1.9-9.11S114.41,104.55,114.41,109.58Z" transform="translate(-10.63 -5.34)"/><path class="cls-6" d="M158.13,109.58c0,5-.85,9.11-1.9,9.11s-1.9-4.08-1.9-9.11.85-9.11,1.9-9.11S158.13,104.55,158.13,109.58Z" transform="translate(-10.63 -5.34)"/><path class="cls-5" d="M61.82,249a3.43,3.43,0,0,1-2-.67,3.39,3.39,0,0,1-1.34-3.17l10.72-81L11.56,103.23a3.39,3.39,0,0,1,1.86-5.67l81-14.72L133.91,7.16a3.37,3.37,0,0,1,3-1.82h0a3.39,3.39,0,0,1,3,1.8L180.09,82.8l81.63,13.39a3.39,3.39,0,0,1,1.93,5.66l-56.93,61,11.39,82.37a3.4,3.4,0,0,1-4.78,3.55L139,214.54,63.21,248.73A3.41,3.41,0,0,1,61.82,249Zm-41-145.91L75.2,160.7a3.4,3.4,0,0,1,.9,2.77L66,240l71.59-32.31a3.36,3.36,0,0,1,2.81,0L210.54,240l-10.76-77.84a3.4,3.4,0,0,1,.88-2.78l53.71-57.5-77-12.63a3.42,3.42,0,0,1-2.45-1.75L136.94,16,99.64,87.45a3.35,3.35,0,0,1-2.4,1.76Z" transform="translate(-10.63 -5.34)"/></svg>